<svg width="21" height="20" viewBox="0 0 21 20" fill="none" xmlns="http://www.w3.org/2000/svg">
<path d="M9.47371 0.85958C9.77356 -0.0606967 11.0755 -0.0606959 11.3753 0.859581L13.1264 6.23398C13.2605 6.64561 13.6443 6.92418 14.0772 6.92418H19.738C20.7074 6.92418 21.1097 8.16521 20.3247 8.73398L15.7498 12.0486C15.3984 12.3033 15.2513 12.7555 15.3857 13.1682L17.1343 18.5349C17.4343 19.4557 16.381 20.2227 15.5968 19.6544L11.0112 16.3321C10.6612 16.0784 10.1878 16.0784 9.8378 16.3321L5.25225 19.6544C4.46799 20.2227 3.4147 19.4557 3.71472 18.5348L5.4633 13.1682C5.59775 12.7555 5.45067 12.3033 5.09921 12.0486L0.524337 8.73398C-0.26067 8.16521 0.141661 6.92418 1.11106 6.92418H6.77181C7.20474 6.92418 7.5885 6.64561 7.72262 6.23398L9.47371 0.85958Z" fill="#E5E5E5"/>
</svg>
