<svg width="22" height="20" viewBox="0 0 22 20" fill="none" xmlns="http://www.w3.org/2000/svg">
<path d="M9.99007 0.85958C10.2899 -0.0606967 11.5918 -0.0606959 11.8917 0.859581L13.6428 6.23398C13.7769 6.64561 14.1606 6.92418 14.5936 6.92418H20.2543C21.2237 6.92418 21.6261 8.16521 20.841 8.73398L16.2662 12.0486C15.9147 12.3033 15.7676 12.7555 15.9021 13.1682L17.6507 18.5349C17.9507 19.4557 16.8974 20.2227 16.1131 19.6544L11.5276 16.3321C11.1776 16.0784 10.7042 16.0784 10.3542 16.3321L5.7686 19.6544C4.98435 20.2227 3.93106 19.4557 4.23108 18.5348L5.97965 13.1682C6.11411 12.7555 5.96703 12.3033 5.61557 12.0486L1.04069 8.73398C0.255688 8.16521 0.658018 6.92418 1.62741 6.92418H7.28817C7.72109 6.92418 8.10485 6.64561 8.23897 6.23398L9.99007 0.85958Z" fill="#070707"/>
</svg>
