<svg width="22" height="20" viewBox="0 0 22 20" fill="none" xmlns="http://www.w3.org/2000/svg">
<path d="M9.79573 0.85958C10.0956 -0.0606967 11.3975 -0.0606959 11.6973 0.859581L13.4484 6.23398C13.5826 6.64561 13.9663 6.92418 14.3992 6.92418H20.06C21.0294 6.92418 21.4317 8.16521 20.6467 8.73398L16.0718 12.0486C15.7204 12.3033 15.5733 12.7555 15.7078 13.1682L17.4563 18.5349C17.7563 19.4557 16.7031 20.2227 15.9188 19.6544L11.3333 16.3321C10.9832 16.0784 10.5099 16.0784 10.1598 16.3321L5.57427 19.6544C4.79001 20.2227 3.73672 19.4557 4.03675 18.5348L5.78532 13.1682C5.91977 12.7555 5.77269 12.3033 5.42123 12.0486L0.846358 8.73398C0.0613518 8.16521 0.463682 6.92418 1.43308 6.92418H7.09383C7.52676 6.92418 7.91052 6.64561 8.04464 6.23398L9.79573 0.85958Z" fill="#070707"/>
</svg>
