<svg width="168" height="27" viewBox="0 0 168 27" fill="none" xmlns="http://www.w3.org/2000/svg">
<path d="M12.7957 3.85958C13.0956 2.9393 14.3975 2.9393 14.6973 3.85958L16.4484 9.23398C16.5826 9.64561 16.9663 9.92418 17.3992 9.92418H23.06C24.0294 9.92418 24.4317 11.1652 23.6467 11.734L19.0718 15.0486C18.7204 15.3033 18.5733 15.7555 18.7078 16.1682L20.4563 21.5349C20.7563 22.4557 19.7031 23.2227 18.9188 22.6544L14.3333 19.3321C13.9832 19.0784 13.5099 19.0784 13.1598 19.3321L8.57427 22.6544C7.79001 23.2227 6.73672 22.4557 7.03675 21.5348L8.78532 16.1682C8.91977 15.7555 8.77269 15.3033 8.42123 15.0486L3.84636 11.734C3.06135 11.1652 3.46368 9.92418 4.43308 9.92418H10.0938C10.5268 9.92418 10.9105 9.64561 11.0446 9.23398L12.7957 3.85958Z" fill="#070707"/>
<path d="M47.8929 3.85958C48.1927 2.9393 49.4947 2.9393 49.7945 3.85958L51.5456 9.23398C51.6797 9.64561 52.0635 9.92418 52.4964 9.92418H58.1572C59.1266 9.92418 59.5289 11.1652 58.7439 11.734L54.169 15.0486C53.8175 15.3033 53.6705 15.7555 53.8049 16.1682L55.5535 21.5349C55.8535 22.4557 54.8002 23.2227 54.016 22.6544L49.4304 19.3321C49.0804 19.0784 48.607 19.0784 48.257 19.3321L43.6714 22.6544C42.8872 23.2227 41.8339 22.4557 42.1339 21.5348L43.8825 16.1682C44.0169 15.7555 43.8699 15.3033 43.5184 15.0486L38.9435 11.734C38.1585 11.1652 38.5609 9.92418 39.5302 9.92418H45.191C45.6239 9.92418 46.0077 9.64561 46.1418 9.23398L47.8929 3.85958Z" fill="#070707"/>
<path d="M82.9901 3.85958C83.2899 2.9393 84.5918 2.9393 84.8917 3.85958L86.6428 9.23398C86.7769 9.64561 87.1606 9.92418 87.5936 9.92418H93.2543C94.2237 9.92418 94.6261 11.1652 93.841 11.734L89.2662 15.0486C88.9147 15.3033 88.7676 15.7555 88.9021 16.1682L90.6507 21.5349C90.9507 22.4557 89.8974 23.2227 89.1131 22.6544L84.5276 19.3321C84.1776 19.0784 83.7042 19.0784 83.3542 19.3321L78.7686 22.6544C77.9843 23.2227 76.9311 22.4557 77.2311 21.5348L78.9797 16.1682C79.1141 15.7555 78.967 15.3033 78.6156 15.0486L74.0407 11.734C73.2557 11.1652 73.658 9.92418 74.6274 9.92418H80.2882C80.7211 9.92418 81.1049 9.64561 81.239 9.23398L82.9901 3.85958Z" fill="#070707"/>
<path d="M118.087 3.85958C118.387 2.9393 119.689 2.9393 119.989 3.85958L121.74 9.23398C121.874 9.64561 122.258 9.92418 122.691 9.92418H128.351C129.321 9.92418 129.723 11.1652 128.938 11.734L124.363 15.0486C124.012 15.3033 123.865 15.7555 123.999 16.1682L125.748 21.5349C126.048 22.4557 124.995 23.2227 124.21 22.6544L119.625 19.3321C119.275 19.0784 118.801 19.0784 118.451 19.3321L113.866 22.6544C113.082 23.2227 112.028 22.4557 112.328 21.5348L114.077 16.1682C114.211 15.7555 114.064 15.3033 113.713 15.0486L109.138 11.734C108.353 11.1652 108.755 9.92418 109.725 9.92418H115.385C115.818 9.92418 116.202 9.64561 116.336 9.23398L118.087 3.85958Z" fill="#E5E5E5"/>
<path d="M153.184 3.85958C153.484 2.9393 154.786 2.9393 155.086 3.85958L156.837 9.23398C156.971 9.64561 157.355 9.92418 157.788 9.92418H163.449C164.418 9.92418 164.82 11.1652 164.035 11.734L159.461 15.0486C159.109 15.3033 158.962 15.7555 159.096 16.1682L160.845 21.5349C161.145 22.4557 160.092 23.2227 159.307 22.6544L154.722 19.3321C154.372 19.0784 153.899 19.0784 153.548 19.3321L148.963 22.6544C148.179 23.2227 147.125 22.4557 147.425 21.5348L149.174 16.1682C149.308 15.7555 149.161 15.3033 148.81 15.0486L144.235 11.734C143.45 11.1652 143.852 9.92418 144.822 9.92418H150.483C150.915 9.92418 151.299 9.64561 151.433 9.23398L153.184 3.85958Z" fill="#E5E5E5"/>
</svg>
