<svg width="21" height="20" viewBox="0 0 21 20" fill="none" xmlns="http://www.w3.org/2000/svg">
<path d="M9.60555 0.85958C9.90539 -0.0606967 11.2073 -0.0606959 11.5072 0.859581L13.2582 6.23398C13.3924 6.64561 13.7761 6.92418 14.2091 6.92418H19.8698C20.8392 6.92418 21.2415 8.16521 20.4565 8.73398L15.8817 12.0486C15.5302 12.3033 15.3831 12.7555 15.5176 13.1682L17.2661 18.5349C17.5662 19.4557 16.5129 20.2227 15.7286 19.6544L11.1431 16.3321C10.793 16.0784 10.3197 16.0784 9.96963 16.3321L5.38408 19.6544C4.59983 20.2227 3.54654 19.4557 3.84656 18.5348L5.59513 13.1682C5.72959 12.7555 5.58251 12.3033 5.23105 12.0486L0.656173 8.73398C-0.128834 8.16521 0.273497 6.92418 1.24289 6.92418H6.90365C7.33657 6.92418 7.72033 6.6456 7.85445 6.23398L9.60555 0.85958Z" fill="#E5E5E5"/>
</svg>
