<svg width="21" height="20" viewBox="0 0 21 20" fill="none" xmlns="http://www.w3.org/2000/svg">
<path d="M9.50838 0.85958C9.80822 -0.0606967 11.1101 -0.0606959 11.41 0.859581L13.1611 6.23398C13.2952 6.64561 13.679 6.92418 14.1119 6.92418H19.7726C20.742 6.92418 21.1444 8.16521 20.3594 8.73398L15.7845 12.0486C15.433 12.3033 15.2859 12.7555 15.4204 13.1682L17.169 18.5349C17.469 19.4557 16.4157 20.2227 15.6314 19.6544L11.0459 16.3321C10.6959 16.0784 10.2225 16.0784 9.87246 16.3321L5.28691 19.6544C4.50266 20.2227 3.44937 19.4557 3.74939 18.5348L5.49796 13.1682C5.63242 12.7555 5.48534 12.3033 5.13388 12.0486L0.559005 8.73398C-0.226002 8.16521 0.176329 6.92418 1.14572 6.92418H6.80648C7.2394 6.92418 7.62317 6.64561 7.75728 6.23398L9.50838 0.85958Z" fill="#070707"/>
</svg>
