<svg width="208" height="78" viewBox="0 0 208 78" fill="none" xmlns="http://www.w3.org/2000/svg">
<path fill-rule="evenodd" clip-rule="evenodd" d="M193.257 31C193.257 42.55 183.84 52 172.329 52H33.6848C22.1747 52 12.7573 42.55 12.7573 31C12.7573 19.45 22.1747 10 33.6848 10H172.329C183.97 10 193.257 19.45 193.257 31Z" fill="#070707"/>
<g opacity="0.1" filter="url(#filter0_f_167_525)">
<path fill-rule="evenodd" clip-rule="evenodd" d="M187.24 39C187.24 49.45 178.555 58 167.941 58H40.0793C29.4645 58 20.7795 49.45 20.7795 39C20.7795 28.55 29.4645 20 40.0793 20H167.941C178.676 20 187.24 28.55 187.24 39Z" fill="#070707"/>
</g>
<path d="M38.2264 33.4316C38.2264 34.5918 37.8074 35.5059 36.9695 36.1738C36.1375 36.8418 34.9773 37.1758 33.4891 37.1758C32.118 37.1758 30.9051 36.918 29.8504 36.4023V33.8711C30.7176 34.2578 31.45 34.5303 32.0477 34.6885C32.6512 34.8467 33.202 34.9258 33.7 34.9258C34.2977 34.9258 34.7547 34.8115 35.0711 34.583C35.3934 34.3545 35.5545 34.0146 35.5545 33.5635C35.5545 33.3115 35.4842 33.0889 35.3436 32.8955C35.2029 32.6963 34.9949 32.5059 34.7195 32.3242C34.45 32.1426 33.8963 31.8525 33.0584 31.4541C32.2732 31.085 31.6844 30.7305 31.2918 30.3906C30.8992 30.0508 30.5857 29.6553 30.3514 29.2041C30.117 28.7529 29.9998 28.2256 29.9998 27.6221C29.9998 26.4854 30.3836 25.5918 31.1512 24.9414C31.9246 24.291 32.991 23.9658 34.3504 23.9658C35.0184 23.9658 35.6541 24.0449 36.2576 24.2031C36.867 24.3613 37.5027 24.584 38.1648 24.8711L37.2859 26.9893C36.6004 26.708 36.032 26.5117 35.5809 26.4004C35.1355 26.2891 34.6961 26.2334 34.2625 26.2334C33.7469 26.2334 33.3514 26.3535 33.076 26.5938C32.8006 26.834 32.6629 27.1475 32.6629 27.5342C32.6629 27.7744 32.7186 27.9854 32.8299 28.167C32.9412 28.3428 33.117 28.5156 33.3572 28.6855C33.6033 28.8496 34.1805 29.1484 35.0887 29.582C36.2898 30.1562 37.1131 30.7334 37.5584 31.3135C38.0037 31.8877 38.2264 32.5938 38.2264 33.4316ZM46.2139 28.8965C45.6455 28.8965 45.2002 29.0781 44.8779 29.4414C44.5557 29.7988 44.3711 30.3086 44.3242 30.9707H48.0859C48.0742 30.3086 47.9014 29.7988 47.5674 29.4414C47.2334 29.0781 46.7822 28.8965 46.2139 28.8965ZM46.5918 37.1758C45.0098 37.1758 43.7734 36.7393 42.8828 35.8662C41.9922 34.9932 41.5469 33.7568 41.5469 32.1572C41.5469 30.5107 41.957 29.2393 42.7773 28.3428C43.6035 27.4404 44.7432 26.9893 46.1963 26.9893C47.585 26.9893 48.666 27.3848 49.4394 28.1758C50.2129 28.9668 50.5996 30.0596 50.5996 31.4541V32.7549H44.2627C44.292 33.5166 44.5176 34.1113 44.9394 34.5391C45.3613 34.9668 45.9531 35.1807 46.7148 35.1807C47.3066 35.1807 47.8662 35.1191 48.3936 34.9961C48.9209 34.873 49.4717 34.6768 50.0459 34.4072V36.4814C49.5771 36.7158 49.0762 36.8887 48.543 37C48.0098 37.1172 47.3594 37.1758 46.5918 37.1758ZM63.6496 37H60.9689V31.2607C60.9689 30.5518 60.843 30.0215 60.591 29.6699C60.3391 29.3125 59.9377 29.1338 59.3869 29.1338C58.6369 29.1338 58.0949 29.3857 57.7609 29.8896C57.4269 30.3877 57.26 31.2168 57.26 32.377V37H54.5793V27.1738H56.6271L56.9875 28.4307H57.1369C57.4357 27.9561 57.8459 27.5986 58.3674 27.3584C58.8947 27.1123 59.4924 26.9893 60.1603 26.9893C61.3029 26.9893 62.1701 27.2998 62.7619 27.9209C63.3537 28.5361 63.6496 29.4268 63.6496 30.5928V37ZM71.3207 37.1758C70.1664 37.1758 69.2582 36.7275 68.5961 35.8311C67.9398 34.9346 67.6117 33.6924 67.6117 32.1045C67.6117 30.4932 67.9457 29.2393 68.6137 28.3428C69.2875 27.4404 70.2133 26.9893 71.391 26.9893C72.6273 26.9893 73.5707 27.4697 74.2211 28.4307H74.309C74.1742 27.6982 74.1068 27.0449 74.1068 26.4707V23.3242H76.7963V37H74.7396L74.2211 35.7256H74.1068C73.4975 36.6924 72.5687 37.1758 71.3207 37.1758ZM72.2611 35.04C72.9467 35.04 73.4477 34.8408 73.7641 34.4424C74.0863 34.0439 74.2621 33.3672 74.2914 32.4121V32.1221C74.2914 31.0674 74.1273 30.3115 73.7992 29.8545C73.477 29.3975 72.9496 29.1689 72.2172 29.1689C71.6195 29.1689 71.1537 29.4238 70.8197 29.9336C70.4916 30.4375 70.3275 31.1729 70.3275 32.1396C70.3275 33.1064 70.4945 33.833 70.8285 34.3193C71.1625 34.7998 71.64 35.04 72.2611 35.04ZM96.6736 37H93.993V31.2607C93.993 30.5518 93.8728 30.0215 93.6326 29.6699C93.3982 29.3125 93.0262 29.1338 92.5164 29.1338C91.8309 29.1338 91.3328 29.3857 91.0223 29.8896C90.7117 30.3936 90.5564 31.2227 90.5564 32.377V37H87.8758V27.1738H89.9236L90.284 28.4307H90.4334C90.6971 27.9795 91.0779 27.6279 91.576 27.376C92.074 27.1182 92.6453 26.9893 93.2898 26.9893C94.7605 26.9893 95.7566 27.4697 96.2781 28.4307H96.5154C96.7791 27.9736 97.1658 27.6191 97.6756 27.3672C98.1912 27.1152 98.7713 26.9893 99.4158 26.9893C100.529 26.9893 101.37 27.2764 101.938 27.8506C102.512 28.4189 102.8 29.333 102.8 30.5928V37H100.11V31.2607C100.11 30.5518 99.99 30.0215 99.7498 29.6699C99.5154 29.3125 99.1434 29.1338 98.6336 29.1338C97.9773 29.1338 97.4852 29.3682 97.157 29.8369C96.8348 30.3057 96.6736 31.0498 96.6736 32.0693V37ZM111.429 28.8965C110.86 28.8965 110.415 29.0781 110.093 29.4414C109.771 29.7988 109.586 30.3086 109.539 30.9707H113.301C113.289 30.3086 113.116 29.7988 112.782 29.4414C112.448 29.0781 111.997 28.8965 111.429 28.8965ZM111.807 37.1758C110.225 37.1758 108.988 36.7393 108.098 35.8662C107.207 34.9932 106.762 33.7568 106.762 32.1572C106.762 30.5107 107.172 29.2393 107.992 28.3428C108.818 27.4404 109.958 26.9893 111.411 26.9893C112.8 26.9893 113.881 27.3848 114.654 28.1758C115.428 28.9668 115.814 30.0596 115.814 31.4541V32.7549H109.478C109.507 33.5166 109.732 34.1113 110.154 34.5391C110.576 34.9668 111.168 35.1807 111.93 35.1807C112.521 35.1807 113.081 35.1191 113.608 34.9961C114.136 34.873 114.687 34.6768 115.261 34.4072V36.4814C114.792 36.7158 114.291 36.8887 113.758 37C113.225 37.1172 112.574 37.1758 111.807 37.1758ZM126.65 34.082C126.65 35.0898 126.298 35.8574 125.595 36.3848C124.898 36.9121 123.852 37.1758 122.457 37.1758C121.742 37.1758 121.133 37.126 120.629 37.0264C120.125 36.9326 119.654 36.792 119.214 36.6045V34.3896C119.712 34.624 120.272 34.8203 120.893 34.9785C121.52 35.1367 122.071 35.2158 122.545 35.2158C123.518 35.2158 124.004 34.9346 124.004 34.3721C124.004 34.1611 123.94 33.9912 123.811 33.8623C123.682 33.7275 123.459 33.5781 123.143 33.4141C122.826 33.2441 122.404 33.0479 121.877 32.8252C121.121 32.5088 120.565 32.2158 120.207 31.9463C119.856 31.6768 119.598 31.3691 119.434 31.0234C119.276 30.6719 119.196 30.2412 119.196 29.7314C119.196 28.8584 119.533 28.1846 120.207 27.71C120.887 27.2295 121.848 26.9893 123.09 26.9893C124.274 26.9893 125.425 27.2471 126.544 27.7627L125.736 29.6963C125.243 29.4854 124.783 29.3125 124.356 29.1777C123.928 29.043 123.491 28.9756 123.046 28.9756C122.255 28.9756 121.86 29.1895 121.86 29.6172C121.86 29.8574 121.986 30.0654 122.237 30.2412C122.495 30.417 123.055 30.6777 123.916 31.0234C124.684 31.334 125.246 31.624 125.604 31.8936C125.961 32.1631 126.225 32.4736 126.395 32.8252C126.565 33.1768 126.65 33.5957 126.65 34.082ZM137.397 34.082C137.397 35.0898 137.045 35.8574 136.342 36.3848C135.645 36.9121 134.599 37.1758 133.204 37.1758C132.49 37.1758 131.88 37.126 131.376 37.0264C130.872 36.9326 130.401 36.792 129.961 36.6045V34.3896C130.459 34.624 131.019 34.8203 131.64 34.9785C132.267 35.1367 132.818 35.2158 133.292 35.2158C134.265 35.2158 134.751 34.9346 134.751 34.3721C134.751 34.1611 134.687 33.9912 134.558 33.8623C134.429 33.7275 134.206 33.5781 133.89 33.4141C133.574 33.2441 133.152 33.0479 132.624 32.8252C131.869 32.5088 131.312 32.2158 130.954 31.9463C130.603 31.6768 130.345 31.3691 130.181 31.0234C130.023 30.6719 129.944 30.2412 129.944 29.7314C129.944 28.8584 130.281 28.1846 130.954 27.71C131.634 27.2295 132.595 26.9893 133.837 26.9893C135.021 26.9893 136.172 27.2471 137.291 27.7627L136.483 29.6963C135.991 29.4854 135.531 29.3125 135.103 29.1777C134.675 29.043 134.239 28.9756 133.793 28.9756C133.002 28.9756 132.607 29.1895 132.607 29.6172C132.607 29.8574 132.733 30.0654 132.985 30.2412C133.243 30.417 133.802 30.6777 134.663 31.0234C135.431 31.334 135.994 31.624 136.351 31.8936C136.708 32.1631 136.972 32.4736 137.142 32.8252C137.312 33.1768 137.397 33.5957 137.397 34.082ZM147.529 37L147.01 35.6641H146.94C146.489 36.2324 146.023 36.6279 145.543 36.8506C145.068 37.0674 144.447 37.1758 143.679 37.1758C142.736 37.1758 141.992 36.9062 141.447 36.3672C140.908 35.8281 140.638 35.0605 140.638 34.0645C140.638 33.0215 141.002 32.2539 141.728 31.7617C142.461 31.2637 143.562 30.9883 145.033 30.9355L146.738 30.8828V30.4521C146.738 29.4561 146.228 28.958 145.209 28.958C144.423 28.958 143.501 29.1953 142.44 29.6699L141.552 27.8594C142.683 27.2676 143.937 26.9717 145.314 26.9717C146.632 26.9717 147.643 27.2588 148.346 27.833C149.049 28.4072 149.401 29.2803 149.401 30.4521V37H147.529ZM146.738 32.4473L145.701 32.4824C144.921 32.5059 144.341 32.6465 143.961 32.9043C143.58 33.1621 143.389 33.5547 143.389 34.082C143.389 34.8379 143.823 35.2158 144.69 35.2158C145.311 35.2158 145.806 35.0371 146.175 34.6797C146.55 34.3223 146.738 33.8477 146.738 33.2559V32.4473ZM162.521 27.1738V28.5361L160.983 28.9316C161.264 29.3711 161.405 29.8633 161.405 30.4082C161.405 31.4629 161.036 32.2861 160.298 32.8779C159.565 33.4639 158.546 33.7568 157.239 33.7568L156.756 33.7305L156.36 33.6865C156.085 33.8975 155.947 34.1318 155.947 34.3896C155.947 34.7764 156.439 34.9697 157.424 34.9697H159.094C160.172 34.9697 160.992 35.2012 161.554 35.6641C162.123 36.127 162.407 36.8066 162.407 37.7031C162.407 38.8516 161.927 39.7422 160.966 40.375C160.011 41.0078 158.637 41.3242 156.844 41.3242C155.472 41.3242 154.424 41.084 153.697 40.6035C152.976 40.1289 152.616 39.4609 152.616 38.5996C152.616 38.0078 152.801 37.5127 153.17 37.1143C153.539 36.7158 154.081 36.4316 154.796 36.2617C154.52 36.1445 154.28 35.9541 154.075 35.6904C153.87 35.4209 153.767 35.1367 153.767 34.8379C153.767 34.4629 153.876 34.1523 154.093 33.9062C154.309 33.6543 154.623 33.4082 155.033 33.168C154.517 32.9453 154.107 32.5879 153.803 32.0957C153.504 31.6035 153.354 31.0234 153.354 30.3555C153.354 29.2832 153.703 28.4541 154.4 27.8682C155.097 27.2822 156.094 26.9893 157.388 26.9893C157.664 26.9893 157.989 27.0156 158.364 27.0684C158.745 27.1152 158.988 27.1504 159.094 27.1738H162.521ZM154.936 38.3887C154.936 38.7578 155.112 39.0479 155.464 39.2588C155.821 39.4697 156.319 39.5752 156.958 39.5752C157.919 39.5752 158.672 39.4434 159.217 39.1797C159.762 38.916 160.034 38.5557 160.034 38.0986C160.034 37.7295 159.873 37.4746 159.551 37.334C159.228 37.1934 158.73 37.123 158.056 37.123H156.668C156.176 37.123 155.762 37.2373 155.429 37.4658C155.1 37.7002 154.936 38.0078 154.936 38.3887ZM155.912 30.3906C155.912 30.9238 156.032 31.3457 156.272 31.6562C156.518 31.9668 156.89 32.1221 157.388 32.1221C157.892 32.1221 158.262 31.9668 158.496 31.6562C158.73 31.3457 158.847 30.9238 158.847 30.3906C158.847 29.207 158.361 28.6152 157.388 28.6152C156.404 28.6152 155.912 29.207 155.912 30.3906ZM170.017 28.8965C169.448 28.8965 169.003 29.0781 168.681 29.4414C168.358 29.7988 168.174 30.3086 168.127 30.9707H171.889C171.877 30.3086 171.704 29.7988 171.37 29.4414C171.036 29.0781 170.585 28.8965 170.017 28.8965ZM170.395 37.1758C168.812 37.1758 167.576 36.7393 166.686 35.8662C165.795 34.9932 165.35 33.7568 165.35 32.1572C165.35 30.5107 165.76 29.2393 166.58 28.3428C167.406 27.4404 168.546 26.9893 169.999 26.9893C171.388 26.9893 172.469 27.3848 173.242 28.1758C174.016 28.9668 174.402 30.0596 174.402 31.4541V32.7549H168.065C168.095 33.5166 168.32 34.1113 168.742 34.5391C169.164 34.9668 169.756 35.1807 170.518 35.1807C171.109 35.1807 171.669 35.1191 172.196 34.9961C172.724 34.873 173.274 34.6768 173.849 34.4072V36.4814C173.38 36.7158 172.879 36.8887 172.346 37C171.812 37.1172 171.162 37.1758 170.395 37.1758Z" fill="white"/>
<defs>
<filter id="filter0_f_167_525" x="0.779541" y="0" width="206.461" height="78" filterUnits="userSpaceOnUse" color-interpolation-filters="sRGB">
<feFlood flood-opacity="0" result="BackgroundImageFix"/>
<feBlend mode="normal" in="SourceGraphic" in2="BackgroundImageFix" result="shape"/>
<feGaussianBlur stdDeviation="10" result="effect1_foregroundBlur_167_525"/>
</filter>
</defs>
</svg>
