<svg width="90" height="87" viewBox="0 0 90 87" fill="none" xmlns="http://www.w3.org/2000/svg">
<path d="M8.48622 21.5124C8.51168 21.4234 8.63778 21.4234 8.66325 21.5124L8.77946 21.9185C8.79312 21.9662 8.84215 21.9945 8.89031 21.9825L9.30073 21.8799C9.39063 21.8574 9.45367 21.9669 9.38912 22.0334L9.09543 22.3359C9.06075 22.3716 9.06075 22.4284 9.09543 22.4642L9.38912 22.7667C9.45367 22.8332 9.39063 22.9426 9.30073 22.9201L8.89031 22.8175C8.84215 22.8055 8.79312 22.8338 8.77946 22.8815L8.66325 23.2876C8.63778 23.3766 8.51168 23.3766 8.48622 23.2876L8.37 22.8815C8.35634 22.8338 8.30731 22.8055 8.25916 22.8175L7.84873 22.9201C7.75883 22.9426 7.6958 22.8332 7.76034 22.7667L8.05403 22.4642C8.08871 22.4284 8.08871 22.3716 8.05403 22.3359L7.76034 22.0334C7.6958 21.9669 7.75883 21.8574 7.84873 21.8799L8.25916 21.9825C8.30731 21.9945 8.35634 21.9662 8.37 21.9185L8.48622 21.5124Z" fill="#E5E5E5"/>
<g clip-path="url(#clip0_254_460)">
<path d="M4.19629 3.70898H85.7808V83.0685H4.19629V3.70898Z" fill="#2E001E"/>
<path d="M0.486816 0V86.775H89.4868V0H0.486816ZM4.19634 3.70952H85.7809V83.069H4.19634V3.70952Z" fill="#FF2BC2"/>
<path d="M65.1223 36.4548C64.5669 36.1949 63.8621 36.0846 62.9721 36.0846C58.2978 36.0846 55.1828 39.6802 55.1828 45.6539C55.1828 52.4784 58.3725 55.2231 62.5271 55.2231C63.4171 55.2231 64.3818 55.1128 65.0867 54.8137V36.4548H65.1223ZM48.5113 45.9458C48.5113 37.3057 54.0756 30.5559 63.1963 30.5559C63.976 30.5559 64.3818 30.5559 65.1259 30.6307V20.9902C65.1259 20.7695 65.311 20.6199 65.4961 20.6199H71.4662C71.7617 20.6199 71.8365 20.7303 71.8365 20.9154V54.8102C71.8365 55.8105 71.8365 57.0708 72.0216 58.4449C72.0216 58.7048 72.0216 58.7404 71.7973 58.8543C68.6823 60.3389 65.4178 61.0046 62.3028 61.0046C54.2572 61.001 48.5113 56.0348 48.5113 45.9458ZM35.8662 39.9401L46.2507 60.0754C46.4359 60.3709 46.3255 60.6699 46.0265 60.6699H39.5722C39.1628 60.6699 38.9777 60.5596 38.7925 60.1893C36.418 55.2943 34.0079 50.2142 31.523 44.949H31.4483C29.2233 49.9187 26.7775 55.3335 24.403 60.2285C24.2179 60.524 24.0328 60.6379 23.7337 60.6379H17.5821C17.2118 60.6379 17.1727 60.3424 17.3578 60.1181L27.518 40.5737L17.6924 21.1433C17.4681 20.8478 17.6924 20.5879 17.9523 20.5879H24.3318C24.7021 20.5879 24.8872 20.6627 25.0011 20.9973C27.3365 25.9279 29.711 30.7873 31.936 35.7571H32.0107C34.161 30.8621 36.5355 25.9315 38.7961 21.0721C38.9812 20.7766 39.0916 20.5915 39.4654 20.5915H45.4355C45.731 20.5915 45.8449 20.8157 45.6598 21.1468L35.8662 39.9401Z" fill="#FF2BC2"/>
</g>
<defs>
<clipPath id="clip0_254_460">
<rect width="89" height="86.775" fill="white" transform="translate(0.486816)"/>
</clipPath>
</defs>
</svg>
