<svg width="22" height="20" viewBox="0 0 22 20" fill="none" xmlns="http://www.w3.org/2000/svg">
<path d="M10.0872 0.85958C10.3871 -0.0606967 11.689 -0.0606959 11.9888 0.859581L13.7399 6.23398C13.8741 6.64561 14.2578 6.92418 14.6907 6.92418H20.3515C21.3209 6.92418 21.7232 8.16521 20.9382 8.73398L16.3633 12.0486C16.0119 12.3033 15.8648 12.7555 15.9993 13.1682L17.7478 18.5349C18.0479 19.4557 16.9946 20.2227 16.2103 19.6544L11.6248 16.3321C11.2747 16.0784 10.8014 16.0784 10.4513 16.3321L5.86577 19.6544C5.08152 20.2227 4.02823 19.4557 4.32825 18.5348L6.07682 13.1682C6.21128 12.7555 6.06419 12.3033 5.71274 12.0486L1.13786 8.73398C0.352856 8.16521 0.755186 6.92418 1.72458 6.92418H7.38534C7.81826 6.92418 8.20202 6.64561 8.33614 6.23398L10.0872 0.85958Z" fill="#E5E5E5"/>
</svg>
