<svg width="167" height="27" viewBox="0 0 167 27" fill="none" xmlns="http://www.w3.org/2000/svg">
<path d="M12.0853 3.85958C12.3851 2.9393 13.687 2.9393 13.9869 3.85958L15.738 9.23398C15.8721 9.64561 16.2559 9.92418 16.6888 9.92418H22.3495C23.3189 9.92418 23.7213 11.1652 22.9363 11.734L18.3614 15.0486C18.0099 15.3033 17.8629 15.7555 17.9973 16.1682L19.7459 21.5349C20.0459 22.4557 18.9926 23.2227 18.2084 22.6544L13.6228 19.3321C13.2728 19.0784 12.7994 19.0784 12.4494 19.3321L7.86382 22.6544C7.07956 23.2227 6.02627 22.4557 6.3263 21.5348L8.07487 16.1682C8.20932 15.7555 8.06224 15.3033 7.71078 15.0486L3.13591 11.734C2.3509 11.1652 2.75323 9.92418 3.72263 9.92418H9.38338C9.81631 9.92418 10.2001 9.64561 10.3342 9.23398L12.0853 3.85958Z" fill="#070707"/>
<path d="M47.1825 3.85958C47.4823 2.9393 48.7842 2.9393 49.0841 3.85958L50.8352 9.23398C50.9693 9.64561 51.353 9.92418 51.786 9.92418H57.4467C58.4161 9.92418 58.8184 11.1652 58.0334 11.734L53.4586 15.0486C53.1071 15.3033 52.96 15.7555 53.0945 16.1682L54.843 21.5349C55.1431 22.4557 54.0898 23.2227 53.3055 22.6544L48.72 19.3321C48.3699 19.0784 47.8966 19.0784 47.5465 19.3321L42.961 22.6544C42.1767 23.2227 41.1234 22.4557 41.4235 21.5348L43.172 16.1682C43.3065 15.7555 43.1594 15.3033 42.808 15.0486L38.2331 11.734C37.4481 11.1652 37.8504 9.92418 38.8198 9.92418H44.4806C44.9135 9.92418 45.2972 9.64561 45.4314 9.23398L47.1825 3.85958Z" fill="#070707"/>
<path d="M82.2796 3.85958C82.5795 2.9393 83.8814 2.9393 84.1812 3.85958L85.9323 9.23398C86.0664 9.64561 86.4502 9.92418 86.8831 9.92418H92.5439C93.5133 9.92418 93.9156 11.1652 93.1306 11.734L88.5557 15.0486C88.2043 15.3033 88.0572 15.7555 88.1916 16.1682L89.9402 21.5349C90.2402 22.4557 89.1869 23.2227 88.4027 22.6544L83.8171 19.3321C83.4671 19.0784 82.9937 19.0784 82.6437 19.3321L78.0582 22.6544C77.2739 23.2227 76.2206 22.4557 76.5206 21.5348L78.2692 16.1682C78.4037 15.7555 78.2566 15.3033 77.9051 15.0486L73.3302 11.734C72.5452 11.1652 72.9476 9.92418 73.917 9.92418H79.5777C80.0106 9.92418 80.3944 9.64561 80.5285 9.23398L82.2796 3.85958Z" fill="#070707"/>
<path d="M117.377 3.85958C117.677 2.9393 118.979 2.9393 119.278 3.85958L121.029 9.23398C121.164 9.64561 121.547 9.92418 121.98 9.92418H127.641C128.61 9.92418 129.013 11.1652 128.228 11.734L123.653 15.0486C123.301 15.3033 123.154 15.7555 123.289 16.1682L125.037 21.5349C125.337 22.4557 124.284 23.2227 123.5 22.6544L118.914 19.3321C118.564 19.0784 118.091 19.0784 117.741 19.3321L113.155 22.6544C112.371 23.2227 111.318 22.4557 111.618 21.5348L113.366 16.1682C113.501 15.7555 113.354 15.3033 113.002 15.0486L108.427 11.734C107.642 11.1652 108.045 9.92418 109.014 9.92418H114.675C115.108 9.92418 115.492 9.64561 115.626 9.23398L117.377 3.85958Z" fill="#070707"/>
<path d="M152.474 3.85958C152.774 2.9393 154.076 2.9393 154.376 3.85958L156.127 9.23398C156.261 9.64561 156.645 9.92418 157.077 9.92418H162.738C163.708 9.92418 164.11 11.1652 163.325 11.734L158.75 15.0486C158.399 15.3033 158.252 15.7555 158.386 16.1682L160.135 21.5349C160.435 22.4557 159.381 23.2227 158.597 22.6544L154.011 19.3321C153.661 19.0784 153.188 19.0784 152.838 19.3321L148.252 22.6544C147.468 23.2227 146.415 22.4557 146.715 21.5348L148.464 16.1682C148.598 15.7555 148.451 15.3033 148.099 15.0486L143.525 11.734C142.74 11.1652 143.142 9.92418 144.111 9.92418H149.772C150.205 9.92418 150.589 9.64561 150.723 9.23398L152.474 3.85958Z" fill="#E5E5E5"/>
</svg>
