<svg width="167" height="224" viewBox="0 0 167 224" fill="none" xmlns="http://www.w3.org/2000/svg">
<path d="M42.2261 3.93652H123.891V83.8906H42.2261V3.93652Z" fill="url(#paint0_radial_2532_3)"/>
<path d="M42.2261 3.9364H123.891V83.8905H42.2261V3.9364ZM38.5132 87.6277H127.586V0.199219H38.5132V87.6277ZM98.5796 36.0797C95.6522 36.0797 94.6525 37.571 94.6525 38.8108C94.6525 40.1583 95.313 41.0926 99.2579 43.1409C105.077 45.9797 106.898 48.7107 106.898 52.6994C106.898 58.6825 102.364 61.8986 96.2412 61.8986C93.0103 61.8986 90.2256 61.2338 88.637 60.2996C88.3692 60.1918 88.3335 59.9941 88.3335 59.7066V54.1907C88.3335 53.8134 88.512 53.7056 88.7798 53.8853C91.1182 55.4125 93.7957 56.0952 96.2412 56.0952C99.1687 56.0952 100.4 54.8555 100.4 53.1845C100.4 51.837 99.5435 50.6512 95.795 48.6927C90.5291 46.1594 88.3335 43.59 88.3335 39.2779C88.3335 34.4627 92.0821 30.456 98.5796 30.456C101.775 30.456 104.006 30.9411 105.22 31.4981C105.523 31.6778 105.595 31.9832 105.595 32.2527V37.3734C105.595 37.6788 105.416 37.8585 105.041 37.7507C103.399 36.7086 100.989 36.0797 98.5796 36.0797ZM66.6632 40.5176C67.52 40.5895 68.1805 40.5895 69.662 40.5895C73.9997 40.5895 78.0874 39.0623 78.0874 33.1152C78.0874 28.3718 75.16 25.9822 70.2154 25.9822C68.7338 25.9822 67.3236 26.054 66.6453 26.09L66.6632 40.5176ZM60.0407 20.6818C60.0407 20.4123 60.5584 20.2327 60.8618 20.2327C63.2359 20.1249 66.7703 20.053 70.4296 20.053C80.7114 20.053 84.7277 25.7306 84.7277 32.9714C84.7277 42.4581 77.8911 46.5367 69.5014 46.5367C68.0912 46.5367 67.6093 46.4648 66.6096 46.4648V60.8026C66.6096 61.1081 66.5025 61.2518 66.1634 61.2518H60.487C60.1835 61.2518 60.0407 61.144 60.0407 60.8026V20.6818Z" fill="#31C5F0"/>
<path d="M68.3388 122.564L67.7508 120.8H63.8448L63.2568 122.564H61.1708L64.6008 112.764H66.9948L70.4388 122.564H68.3388ZM64.4608 118.994H67.1488L65.8048 114.99L64.4608 118.994ZM76.4209 112.764H78.2269V122.564H76.4209V121.738C75.8889 122.42 75.1329 122.76 74.1529 122.76C73.2103 122.76 72.4029 122.406 71.7309 121.696C71.0683 120.978 70.7369 120.1 70.7369 119.064C70.7369 118.028 71.0683 117.156 71.7309 116.446C72.4029 115.728 73.2103 115.368 74.1529 115.368C75.1329 115.368 75.8889 115.709 76.4209 116.39V112.764ZM73.0889 120.492C73.4623 120.856 73.9289 121.038 74.4889 121.038C75.0489 121.038 75.5109 120.856 75.8749 120.492C76.2389 120.119 76.4209 119.643 76.4209 119.064C76.4209 118.486 76.2389 118.014 75.8749 117.65C75.5109 117.277 75.0489 117.09 74.4889 117.09C73.9289 117.09 73.4623 117.277 73.0889 117.65C72.7249 118.014 72.5429 118.486 72.5429 119.064C72.5429 119.643 72.7249 120.119 73.0889 120.492ZM85.8426 121.696C85.1239 122.406 84.2466 122.76 83.2106 122.76C82.1746 122.76 81.2973 122.406 80.5786 121.696C79.8693 120.978 79.5146 120.1 79.5146 119.064C79.5146 118.028 79.8693 117.156 80.5786 116.446C81.2973 115.728 82.1746 115.368 83.2106 115.368C84.2466 115.368 85.1239 115.728 85.8426 116.446C86.5613 117.156 86.9206 118.028 86.9206 119.064C86.9206 120.1 86.5613 120.978 85.8426 121.696ZM81.8526 120.45C82.2166 120.814 82.6693 120.996 83.2106 120.996C83.7519 120.996 84.2046 120.814 84.5686 120.45C84.9326 120.086 85.1146 119.624 85.1146 119.064C85.1146 118.504 84.9326 118.042 84.5686 117.678C84.2046 117.314 83.7519 117.132 83.2106 117.132C82.6693 117.132 82.2166 117.314 81.8526 117.678C81.4979 118.042 81.3206 118.504 81.3206 119.064C81.3206 119.624 81.4979 120.086 81.8526 120.45ZM92.2651 115.368C93.2078 115.368 94.0104 115.728 94.6731 116.446C95.3451 117.156 95.6811 118.028 95.6811 119.064C95.6811 120.1 95.3451 120.978 94.6731 121.696C94.0104 122.406 93.2078 122.76 92.2651 122.76C91.2851 122.76 90.5291 122.42 89.9971 121.738V122.564H88.1911V112.764H89.9971V116.39C90.5291 115.709 91.2851 115.368 92.2651 115.368ZM90.5431 120.492C90.9071 120.856 91.3691 121.038 91.9291 121.038C92.4891 121.038 92.9511 120.856 93.3151 120.492C93.6884 120.119 93.8751 119.643 93.8751 119.064C93.8751 118.486 93.6884 118.014 93.3151 117.65C92.9511 117.277 92.4891 117.09 91.9291 117.09C91.3691 117.09 90.9071 117.277 90.5431 117.65C90.1791 118.014 89.9971 118.486 89.9971 119.064C89.9971 119.643 90.1791 120.119 90.5431 120.492ZM98.4808 119.806C98.7235 120.684 99.3815 121.122 100.455 121.122C101.145 121.122 101.668 120.889 102.023 120.422L103.479 121.262C102.788 122.261 101.771 122.76 100.427 122.76C99.2695 122.76 98.3408 122.41 97.6408 121.71C96.9408 121.01 96.5908 120.128 96.5908 119.064C96.5908 118.01 96.9361 117.132 97.6268 116.432C98.3175 115.723 99.2041 115.368 100.287 115.368C101.313 115.368 102.158 115.723 102.821 116.432C103.493 117.142 103.829 118.019 103.829 119.064C103.829 119.298 103.805 119.545 103.759 119.806H98.4808ZM98.4528 118.406H102.023C101.92 117.93 101.705 117.576 101.379 117.342C101.061 117.109 100.697 116.992 100.287 116.992C99.8015 116.992 99.4001 117.118 99.0828 117.37C98.7655 117.613 98.5555 117.958 98.4528 118.406ZM52.602 129.764C53.5446 129.764 54.338 130.082 54.982 130.716C55.626 131.351 55.948 132.13 55.948 133.054C55.948 133.978 55.626 134.758 54.982 135.392C54.338 136.027 53.5446 136.344 52.602 136.344H50.88V139.564H48.948V129.764H52.602ZM52.602 134.538C53.0126 134.538 53.3533 134.398 53.624 134.118C53.8946 133.829 54.03 133.474 54.03 133.054C54.03 132.625 53.8946 132.27 53.624 131.99C53.3533 131.71 53.0126 131.57 52.602 131.57H50.88V134.538H52.602ZM61.0138 132.368C61.7791 132.368 62.4091 132.625 62.9038 133.138C63.4078 133.652 63.6598 134.361 63.6598 135.266V139.564H61.8538V135.49C61.8538 135.024 61.7278 134.669 61.4758 134.426C61.2238 134.174 60.8878 134.048 60.4678 134.048C60.0011 134.048 59.6278 134.193 59.3478 134.482C59.0678 134.772 58.9278 135.206 58.9278 135.784V139.564H57.1218V129.764H58.9278V133.348C59.3664 132.695 60.0618 132.368 61.0138 132.368ZM71.1659 138.696C70.4472 139.406 69.5699 139.76 68.5339 139.76C67.4979 139.76 66.6205 139.406 65.9019 138.696C65.1925 137.978 64.8379 137.1 64.8379 136.064C64.8379 135.028 65.1925 134.156 65.9019 133.446C66.6205 132.728 67.4979 132.368 68.5339 132.368C69.5699 132.368 70.4472 132.728 71.1659 133.446C71.8845 134.156 72.2439 135.028 72.2439 136.064C72.2439 137.1 71.8845 137.978 71.1659 138.696ZM67.1759 137.45C67.5399 137.814 67.9925 137.996 68.5339 137.996C69.0752 137.996 69.5279 137.814 69.8919 137.45C70.2559 137.086 70.4379 136.624 70.4379 136.064C70.4379 135.504 70.2559 135.042 69.8919 134.678C69.5279 134.314 69.0752 134.132 68.5339 134.132C67.9925 134.132 67.5399 134.314 67.1759 134.678C66.8212 135.042 66.6439 135.504 66.6439 136.064C66.6439 136.624 66.8212 137.086 67.1759 137.45ZM77.368 134.3H75.786V137.212C75.786 137.455 75.8466 137.632 75.968 137.744C76.0893 137.856 76.2666 137.922 76.5 137.94C76.7333 137.95 77.0226 137.945 77.368 137.926V139.564C76.1266 139.704 75.2493 139.588 74.736 139.214C74.232 138.841 73.98 138.174 73.98 137.212V134.3H72.762V132.564H73.98V131.15L75.786 130.604V132.564H77.368V134.3ZM84.3866 138.696C83.6679 139.406 82.7906 139.76 81.7546 139.76C80.7186 139.76 79.8412 139.406 79.1226 138.696C78.4132 137.978 78.0586 137.1 78.0586 136.064C78.0586 135.028 78.4132 134.156 79.1226 133.446C79.8412 132.728 80.7186 132.368 81.7546 132.368C82.7906 132.368 83.6679 132.728 84.3866 133.446C85.1052 134.156 85.4646 135.028 85.4646 136.064C85.4646 137.1 85.1052 137.978 84.3866 138.696ZM80.3966 137.45C80.7606 137.814 81.2132 137.996 81.7546 137.996C82.2959 137.996 82.7486 137.814 83.1126 137.45C83.4766 137.086 83.6586 136.624 83.6586 136.064C83.6586 135.504 83.4766 135.042 83.1126 134.678C82.7486 134.314 82.2959 134.132 81.7546 134.132C81.2132 134.132 80.7606 134.314 80.3966 134.678C80.0419 135.042 79.8646 135.504 79.8646 136.064C79.8646 136.624 80.0419 137.086 80.3966 137.45ZM88.2507 134.552C88.2507 134.739 88.372 134.893 88.6147 135.014C88.8667 135.126 89.17 135.229 89.5247 135.322C89.8793 135.406 90.234 135.518 90.5887 135.658C90.9433 135.789 91.242 136.013 91.4847 136.33C91.7367 136.648 91.8627 137.044 91.8627 137.52C91.8627 138.239 91.592 138.794 91.0507 139.186C90.5187 139.569 89.8513 139.76 89.0487 139.76C87.6113 139.76 86.6313 139.205 86.1087 138.094L87.6767 137.212C87.882 137.819 88.3393 138.122 89.0487 138.122C89.6927 138.122 90.0147 137.922 90.0147 137.52C90.0147 137.334 89.8887 137.184 89.6367 137.072C89.394 136.951 89.0953 136.844 88.7407 136.75C88.386 136.657 88.0313 136.54 87.6767 136.4C87.322 136.26 87.0187 136.041 86.7667 135.742C86.524 135.434 86.4027 135.052 86.4027 134.594C86.4027 133.904 86.6547 133.362 87.1587 132.97C87.672 132.569 88.3067 132.368 89.0627 132.368C89.632 132.368 90.15 132.499 90.6167 132.76C91.0833 133.012 91.452 133.376 91.7227 133.852L90.1827 134.692C89.9587 134.216 89.5853 133.978 89.0627 133.978C88.8293 133.978 88.6333 134.03 88.4747 134.132C88.3253 134.235 88.2507 134.375 88.2507 134.552ZM96.9161 132.368C97.6815 132.368 98.3115 132.625 98.8061 133.138C99.3101 133.652 99.5621 134.361 99.5621 135.266V139.564H97.7561V135.49C97.7561 135.024 97.6301 134.669 97.3781 134.426C97.1261 134.174 96.7901 134.048 96.3701 134.048C95.9035 134.048 95.5301 134.193 95.2501 134.482C94.9701 134.772 94.8301 135.206 94.8301 135.784V139.564H93.0241V129.764H94.8301V133.348C95.2688 132.695 95.9641 132.368 96.9161 132.368ZM107.068 138.696C106.35 139.406 105.472 139.76 104.436 139.76C103.4 139.76 102.523 139.406 101.804 138.696C101.095 137.978 100.74 137.1 100.74 136.064C100.74 135.028 101.095 134.156 101.804 133.446C102.523 132.728 103.4 132.368 104.436 132.368C105.472 132.368 106.35 132.728 107.068 133.446C107.787 134.156 108.146 135.028 108.146 136.064C108.146 137.1 107.787 137.978 107.068 138.696ZM103.078 137.45C103.442 137.814 103.895 137.996 104.436 137.996C104.978 137.996 105.43 137.814 105.794 137.45C106.158 137.086 106.34 136.624 106.34 136.064C106.34 135.504 106.158 135.042 105.794 134.678C105.43 134.314 104.978 134.132 104.436 134.132C103.895 134.132 103.442 134.314 103.078 134.678C102.724 135.042 102.546 135.504 102.546 136.064C102.546 136.624 102.724 137.086 103.078 137.45ZM113.491 132.368C114.433 132.368 115.236 132.728 115.899 133.446C116.571 134.156 116.907 135.028 116.907 136.064C116.907 137.1 116.571 137.978 115.899 138.696C115.236 139.406 114.433 139.76 113.491 139.76C112.511 139.76 111.755 139.42 111.223 138.738V142.364H109.417V132.564H111.223V133.39C111.755 132.709 112.511 132.368 113.491 132.368ZM111.769 137.492C112.133 137.856 112.595 138.038 113.155 138.038C113.715 138.038 114.177 137.856 114.541 137.492C114.914 137.119 115.101 136.643 115.101 136.064C115.101 135.486 114.914 135.014 114.541 134.65C114.177 134.277 113.715 134.09 113.155 134.09C112.595 134.09 112.133 134.277 111.769 134.65C111.405 135.014 111.223 135.486 111.223 136.064C111.223 136.643 111.405 137.119 111.769 137.492Z" fill="#828282"/>
<path d="M12.0853 200.86C12.3851 199.939 13.687 199.939 13.9869 200.86L15.738 206.234C15.8721 206.646 16.2559 206.924 16.6888 206.924H22.3495C23.3189 206.924 23.7213 208.165 22.9363 208.734L18.3614 212.049C18.0099 212.303 17.8628 212.756 17.9973 213.168L19.7459 218.535C20.0459 219.456 18.9926 220.223 18.2084 219.654L13.6228 216.332C13.2728 216.078 12.7994 216.078 12.4494 216.332L7.86382 219.654C7.07956 220.223 6.02627 219.456 6.3263 218.535L8.07487 213.168C8.20932 212.756 8.06224 212.303 7.71078 212.049L3.13591 208.734C2.3509 208.165 2.75323 206.924 3.72263 206.924H9.38338C9.81631 206.924 10.2001 206.646 10.3342 206.234L12.0853 200.86Z" fill="#070707"/>
<path d="M47.1824 200.86C47.4823 199.939 48.7842 199.939 49.0841 200.86L50.8352 206.234C50.9693 206.646 51.353 206.924 51.786 206.924H57.4467C58.4161 206.924 58.8184 208.165 58.0334 208.734L53.4586 212.049C53.1071 212.303 52.96 212.756 53.0945 213.168L54.843 218.535C55.1431 219.456 54.0898 220.223 53.3055 219.654L48.72 216.332C48.3699 216.078 47.8966 216.078 47.5465 216.332L42.961 219.654C42.1767 220.223 41.1234 219.456 41.4235 218.535L43.172 213.168C43.3065 212.756 43.1594 212.303 42.808 212.049L38.2331 208.734C37.4481 208.165 37.8504 206.924 38.8198 206.924H44.4806C44.9135 206.924 45.2972 206.646 45.4314 206.234L47.1824 200.86Z" fill="#070707"/>
<path d="M82.2796 200.86C82.5795 199.939 83.8814 199.939 84.1812 200.86L85.9323 206.234C86.0664 206.646 86.4502 206.924 86.8831 206.924H92.5439C93.5133 206.924 93.9156 208.165 93.1306 208.734L88.5557 212.049C88.2043 212.303 88.0572 212.756 88.1916 213.168L89.9402 218.535C90.2402 219.456 89.1869 220.223 88.4027 219.654L83.8171 216.332C83.4671 216.078 82.9937 216.078 82.6437 216.332L78.0582 219.654C77.2739 220.223 76.2206 219.456 76.5206 218.535L78.2692 213.168C78.4037 212.756 78.2566 212.303 77.9051 212.049L73.3302 208.734C72.5452 208.165 72.9476 206.924 73.917 206.924H79.5777C80.0106 206.924 80.3944 206.646 80.5285 206.234L82.2796 200.86Z" fill="#070707"/>
<path d="M117.377 200.86C117.677 199.939 118.979 199.939 119.278 200.86L121.029 206.234C121.164 206.646 121.547 206.924 121.98 206.924H127.641C128.61 206.924 129.013 208.165 128.228 208.734L123.653 212.049C123.301 212.303 123.154 212.756 123.289 213.168L125.037 218.535C125.337 219.456 124.284 220.223 123.5 219.654L118.914 216.332C118.564 216.078 118.091 216.078 117.741 216.332L113.155 219.654C112.371 220.223 111.318 219.456 111.618 218.535L113.366 213.168C113.501 212.756 113.354 212.303 113.002 212.049L108.427 208.734C107.642 208.165 108.045 206.924 109.014 206.924H114.675C115.108 206.924 115.492 206.646 115.626 206.234L117.377 200.86Z" fill="#070707"/>
<path d="M152.474 200.86C152.774 199.939 154.076 199.939 154.376 200.86L156.127 206.234C156.261 206.646 156.645 206.924 157.077 206.924H162.738C163.708 206.924 164.11 208.165 163.325 208.734L158.75 212.049C158.399 212.303 158.252 212.756 158.386 213.168L160.135 218.535C160.435 219.456 159.381 220.223 158.597 219.654L154.011 216.332C153.661 216.078 153.188 216.078 152.838 216.332L148.252 219.654C147.468 220.223 146.415 219.456 146.715 218.535L148.464 213.168C148.598 212.756 148.451 212.303 148.099 212.049L143.525 208.734C142.74 208.165 143.142 206.924 144.111 206.924H149.772C150.205 206.924 150.589 206.646 150.723 206.234L152.474 200.86Z" fill="#E5E5E5"/>
<defs>
<radialGradient id="paint0_radial_2532_3" cx="0" cy="0" r="1" gradientUnits="userSpaceOnUse" gradientTransform="translate(69.1305 21.8743) scale(62.0565 60.4753)">
<stop stop-color="#34364E" stop-opacity="0.98"/>
<stop offset="1" stop-color="#0C0824"/>
</radialGradient>
</defs>
</svg>
