<svg width="168" height="224" viewBox="0 0 168 224" fill="none" xmlns="http://www.w3.org/2000/svg">
<path d="M68.1584 121.565L67.5704 119.801H63.6644L63.0764 121.565H60.9904L64.4204 111.765H66.8144L70.2584 121.565H68.1584ZM64.2804 117.995H66.9684L65.6244 113.991L64.2804 117.995ZM76.2406 111.765H78.0466V121.565H76.2406V120.739C75.7086 121.421 74.9526 121.761 73.9726 121.761C73.0299 121.761 72.2226 121.407 71.5506 120.697C70.8879 119.979 70.5566 119.101 70.5566 118.065C70.5566 117.029 70.8879 116.157 71.5506 115.447C72.2226 114.729 73.0299 114.369 73.9726 114.369C74.9526 114.369 75.7086 114.71 76.2406 115.391V111.765ZM72.9086 119.493C73.2819 119.857 73.7486 120.039 74.3086 120.039C74.8686 120.039 75.3306 119.857 75.6946 119.493C76.0586 119.12 76.2406 118.644 76.2406 118.065C76.2406 117.487 76.0586 117.015 75.6946 116.651C75.3306 116.278 74.8686 116.091 74.3086 116.091C73.7486 116.091 73.2819 116.278 72.9086 116.651C72.5446 117.015 72.3626 117.487 72.3626 118.065C72.3626 118.644 72.5446 119.12 72.9086 119.493ZM85.6622 120.697C84.9436 121.407 84.0662 121.761 83.0302 121.761C81.9942 121.761 81.1169 121.407 80.3982 120.697C79.6889 119.979 79.3342 119.101 79.3342 118.065C79.3342 117.029 79.6889 116.157 80.3982 115.447C81.1169 114.729 81.9942 114.369 83.0302 114.369C84.0662 114.369 84.9436 114.729 85.6622 115.447C86.3809 116.157 86.7402 117.029 86.7402 118.065C86.7402 119.101 86.3809 119.979 85.6622 120.697ZM81.6722 119.451C82.0362 119.815 82.4889 119.997 83.0302 119.997C83.5716 119.997 84.0242 119.815 84.3882 119.451C84.7522 119.087 84.9342 118.625 84.9342 118.065C84.9342 117.505 84.7522 117.043 84.3882 116.679C84.0242 116.315 83.5716 116.133 83.0302 116.133C82.4889 116.133 82.0362 116.315 81.6722 116.679C81.3176 117.043 81.1402 117.505 81.1402 118.065C81.1402 118.625 81.3176 119.087 81.6722 119.451ZM92.0847 114.369C93.0274 114.369 93.8301 114.729 94.4927 115.447C95.1647 116.157 95.5007 117.029 95.5007 118.065C95.5007 119.101 95.1647 119.979 94.4927 120.697C93.8301 121.407 93.0274 121.761 92.0847 121.761C91.1047 121.761 90.3487 121.421 89.8167 120.739V121.565H88.0107V111.765H89.8167V115.391C90.3487 114.71 91.1047 114.369 92.0847 114.369ZM90.3627 119.493C90.7267 119.857 91.1887 120.039 91.7487 120.039C92.3087 120.039 92.7707 119.857 93.1347 119.493C93.5081 119.12 93.6947 118.644 93.6947 118.065C93.6947 117.487 93.5081 117.015 93.1347 116.651C92.7707 116.278 92.3087 116.091 91.7487 116.091C91.1887 116.091 90.7267 116.278 90.3627 116.651C89.9987 117.015 89.8167 117.487 89.8167 118.065C89.8167 118.644 89.9987 119.12 90.3627 119.493ZM98.3004 118.807C98.5431 119.685 99.2011 120.123 100.274 120.123C100.965 120.123 101.488 119.89 101.842 119.423L103.298 120.263C102.608 121.262 101.59 121.761 100.246 121.761C99.0891 121.761 98.1604 121.411 97.4604 120.711C96.7604 120.011 96.4104 119.129 96.4104 118.065C96.4104 117.011 96.7557 116.133 97.4464 115.433C98.1371 114.724 99.0237 114.369 100.106 114.369C101.133 114.369 101.978 114.724 102.64 115.433C103.312 116.143 103.648 117.02 103.648 118.065C103.648 118.299 103.625 118.546 103.578 118.807H98.3004ZM98.2724 117.407H101.842C101.74 116.931 101.525 116.577 101.198 116.343C100.881 116.11 100.517 115.993 100.106 115.993C99.6211 115.993 99.2197 116.119 98.9024 116.371C98.5851 116.614 98.3751 116.959 98.2724 117.407ZM54.0928 128.765H56.0248V138.565H54.0928V128.765ZM57.7549 138.565V128.345H59.5609V138.565H57.7549ZM61.2138 138.565V128.345H63.0198V138.565H61.2138ZM69.2928 131.565H71.0988V138.565H69.2928V137.781C68.8542 138.435 68.1588 138.761 67.2068 138.761C66.4415 138.761 65.8068 138.505 65.3028 137.991C64.8082 137.478 64.5608 136.769 64.5608 135.863V131.565H66.3668V135.639C66.3668 136.106 66.4928 136.465 66.7448 136.717C66.9968 136.96 67.3328 137.081 67.7528 137.081C68.2195 137.081 68.5928 136.937 68.8728 136.647C69.1528 136.358 69.2928 135.924 69.2928 135.345V131.565ZM74.3642 133.553C74.3642 133.74 74.4856 133.894 74.7282 134.015C74.9802 134.127 75.2836 134.23 75.6382 134.323C75.9929 134.407 76.3476 134.519 76.7022 134.659C77.0569 134.79 77.3556 135.014 77.5982 135.331C77.8502 135.649 77.9762 136.045 77.9762 136.521C77.9762 137.24 77.7056 137.795 77.1642 138.187C76.6322 138.57 75.9649 138.761 75.1622 138.761C73.7249 138.761 72.7449 138.206 72.2222 137.095L73.7902 136.213C73.9956 136.82 74.4529 137.123 75.1622 137.123C75.8062 137.123 76.1282 136.923 76.1282 136.521C76.1282 136.335 76.0022 136.185 75.7502 136.073C75.5076 135.952 75.2089 135.845 74.8542 135.751C74.4996 135.658 74.1449 135.541 73.7902 135.401C73.4356 135.261 73.1322 135.042 72.8802 134.743C72.6376 134.435 72.5162 134.053 72.5162 133.595C72.5162 132.905 72.7682 132.363 73.2722 131.971C73.7856 131.57 74.4202 131.369 75.1762 131.369C75.7456 131.369 76.2636 131.5 76.7302 131.761C77.1969 132.013 77.5656 132.377 77.8362 132.853L76.2962 133.693C76.0722 133.217 75.6989 132.979 75.1762 132.979C74.9429 132.979 74.7469 133.031 74.5882 133.133C74.4389 133.236 74.3642 133.376 74.3642 133.553ZM82.9366 133.301H81.3546V136.213C81.3546 136.456 81.4153 136.633 81.5366 136.745C81.6579 136.857 81.8353 136.923 82.0686 136.941C82.3019 136.951 82.5913 136.946 82.9366 136.927V138.565C81.6953 138.705 80.8179 138.589 80.3046 138.215C79.8006 137.842 79.5486 137.175 79.5486 136.213V133.301H78.3306V131.565H79.5486V130.151L81.3546 129.605V131.565H82.9366V133.301ZM86.1253 132.769C86.2933 132.321 86.5687 131.985 86.9513 131.761C87.3433 131.537 87.7773 131.425 88.2533 131.425V133.441C87.7027 133.376 87.208 133.488 86.7693 133.777C86.34 134.067 86.1253 134.547 86.1253 135.219V138.565H84.3193V131.565H86.1253V132.769ZM94.3698 131.565H96.1758V138.565H94.3698V137.739C93.8285 138.421 93.0678 138.761 92.0878 138.761C91.1545 138.761 90.3518 138.407 89.6798 137.697C89.0171 136.979 88.6858 136.101 88.6858 135.065C88.6858 134.029 89.0171 133.157 89.6798 132.447C90.3518 131.729 91.1545 131.369 92.0878 131.369C93.0678 131.369 93.8285 131.71 94.3698 132.391V131.565ZM91.0378 136.493C91.4018 136.857 91.8638 137.039 92.4238 137.039C92.9838 137.039 93.4458 136.857 93.8098 136.493C94.1831 136.12 94.3698 135.644 94.3698 135.065C94.3698 134.487 94.1831 134.015 93.8098 133.651C93.4458 133.278 92.9838 133.091 92.4238 133.091C91.8638 133.091 91.4018 133.278 91.0378 133.651C90.6738 134.015 90.4918 134.487 90.4918 135.065C90.4918 135.644 90.6738 136.12 91.0378 136.493ZM101.817 133.301H100.235V136.213C100.235 136.456 100.296 136.633 100.417 136.745C100.539 136.857 100.716 136.923 100.949 136.941C101.183 136.951 101.472 136.946 101.817 136.927V138.565C100.576 138.705 99.6988 138.589 99.1855 138.215C98.6815 137.842 98.4295 137.175 98.4295 136.213V133.301H97.2115V131.565H98.4295V130.151L100.235 129.605V131.565H101.817V133.301ZM108.836 137.697C108.117 138.407 107.24 138.761 106.204 138.761C105.168 138.761 104.291 138.407 103.572 137.697C102.863 136.979 102.508 136.101 102.508 135.065C102.508 134.029 102.863 133.157 103.572 132.447C104.291 131.729 105.168 131.369 106.204 131.369C107.24 131.369 108.117 131.729 108.836 132.447C109.555 133.157 109.914 134.029 109.914 135.065C109.914 136.101 109.555 136.979 108.836 137.697ZM104.846 136.451C105.21 136.815 105.663 136.997 106.204 136.997C106.745 136.997 107.198 136.815 107.562 136.451C107.926 136.087 108.108 135.625 108.108 135.065C108.108 134.505 107.926 134.043 107.562 133.679C107.198 133.315 106.745 133.133 106.204 133.133C105.663 133.133 105.21 133.315 104.846 133.679C104.491 134.043 104.314 134.505 104.314 135.065C104.314 135.625 104.491 136.087 104.846 136.451ZM112.991 132.769C113.159 132.321 113.434 131.985 113.817 131.761C114.209 131.537 114.643 131.425 115.119 131.425V133.441C114.568 133.376 114.073 133.488 113.635 133.777C113.205 134.067 112.991 134.547 112.991 135.219V138.565H111.185V131.565H112.991V132.769Z" fill="#828282"/>
<path d="M43.2954 3.95215H125.056V84.055H43.2954V3.95215Z" fill="url(#paint0_radial_167_571)"/>
<path d="M43.2954 3.95255H125.056V84.0554H43.2954V3.95255ZM39.5798 87.797H128.789V0.210938H39.5798V87.797ZM98.0108 31.439C98.0108 31.1332 98.118 30.9893 98.4574 30.9893H104.299C104.602 30.9893 104.745 31.0972 104.745 31.439V60.9761C104.745 61.2819 104.674 61.4258 104.299 61.4258H98.5288C98.1537 61.4258 98.0465 61.246 98.0465 60.9401V31.439H98.0108V31.439ZM97.5999 22.9304C97.5999 20.538 99.2791 19.1169 101.387 19.1169C103.656 19.1169 105.174 20.6459 105.174 22.9304C105.174 25.3949 103.584 26.744 101.316 26.744C99.1719 26.762 97.5999 25.4128 97.5999 22.9304ZM80.8799 43.7431C79.8438 39.5878 77.3786 30.5396 76.4497 26.1504H76.3783C75.5923 30.5216 73.6273 37.9328 72.0732 43.7431H80.8799ZM70.5548 49.8053L67.6253 61.0301C67.5538 61.3359 67.4466 61.4079 67.0715 61.4079H61.6053C61.2302 61.4079 61.1587 61.2999 61.2302 60.8502L71.7874 23.65C71.9661 22.9844 72.0911 22.3728 72.1625 20.538C72.1625 20.2681 72.2697 20.1602 72.4662 20.1602H80.2725C80.5405 20.1602 80.6476 20.2321 80.7191 20.538L92.5446 60.9222C92.6161 61.228 92.5446 61.4079 92.2409 61.4079H86.0781C85.7744 61.4079 85.5958 61.3359 85.5243 61.0661L82.4697 49.8053H70.5548Z" fill="#FF7F18"/>
<path d="M12.7957 200.86C13.0956 199.939 14.3975 199.939 14.6973 200.86L16.4484 206.234C16.5826 206.646 16.9663 206.924 17.3992 206.924H23.06C24.0294 206.924 24.4317 208.165 23.6467 208.734L19.0718 212.049C18.7204 212.303 18.5733 212.756 18.7078 213.168L20.4563 218.535C20.7563 219.456 19.7031 220.223 18.9188 219.654L14.3333 216.332C13.9832 216.078 13.5099 216.078 13.1598 216.332L8.57427 219.654C7.79001 220.223 6.73672 219.456 7.03675 218.535L8.78532 213.168C8.91977 212.756 8.77269 212.303 8.42123 212.049L3.84636 208.734C3.06135 208.165 3.46368 206.924 4.43308 206.924H10.0938C10.5268 206.924 10.9105 206.646 11.0446 206.234L12.7957 200.86Z" fill="#070707"/>
<path d="M47.8929 200.86C48.1927 199.939 49.4947 199.939 49.7945 200.86L51.5456 206.234C51.6797 206.646 52.0635 206.924 52.4964 206.924H58.1572C59.1266 206.924 59.5289 208.165 58.7439 208.734L54.169 212.049C53.8175 212.303 53.6705 212.756 53.8049 213.168L55.5535 218.535C55.8535 219.456 54.8002 220.223 54.016 219.654L49.4304 216.332C49.0804 216.078 48.607 216.078 48.257 216.332L43.6714 219.654C42.8872 220.223 41.8339 219.456 42.1339 218.535L43.8825 213.168C44.0169 212.756 43.8699 212.303 43.5184 212.049L38.9435 208.734C38.1585 208.165 38.5609 206.924 39.5302 206.924H45.191C45.6239 206.924 46.0077 206.646 46.1418 206.234L47.8929 200.86Z" fill="#070707"/>
<path d="M82.9901 200.86C83.2899 199.939 84.5918 199.939 84.8917 200.86L86.6428 206.234C86.7769 206.646 87.1606 206.924 87.5936 206.924H93.2543C94.2237 206.924 94.6261 208.165 93.841 208.734L89.2662 212.049C88.9147 212.303 88.7676 212.756 88.9021 213.168L90.6507 218.535C90.9507 219.456 89.8974 220.223 89.1131 219.654L84.5276 216.332C84.1776 216.078 83.7042 216.078 83.3542 216.332L78.7686 219.654C77.9843 220.223 76.9311 219.456 77.2311 218.535L78.9797 213.168C79.1141 212.756 78.967 212.303 78.6156 212.049L74.0407 208.734C73.2557 208.165 73.658 206.924 74.6274 206.924H80.2882C80.7211 206.924 81.1049 206.646 81.239 206.234L82.9901 200.86Z" fill="#070707"/>
<path d="M118.087 200.86C118.387 199.939 119.689 199.939 119.989 200.86L121.74 206.234C121.874 206.646 122.258 206.924 122.691 206.924H128.351C129.321 206.924 129.723 208.165 128.938 208.734L124.363 212.049C124.012 212.303 123.865 212.756 123.999 213.168L125.748 218.535C126.048 219.456 124.995 220.223 124.21 219.654L119.625 216.332C119.275 216.078 118.801 216.078 118.451 216.332L113.866 219.654C113.082 220.223 112.028 219.456 112.328 218.535L114.077 213.168C114.211 212.756 114.064 212.303 113.713 212.049L109.138 208.734C108.353 208.165 108.755 206.924 109.725 206.924H115.385C115.818 206.924 116.202 206.646 116.336 206.234L118.087 200.86Z" fill="#E5E5E5"/>
<path d="M153.184 200.86C153.484 199.939 154.786 199.939 155.086 200.86L156.837 206.234C156.971 206.646 157.355 206.924 157.788 206.924H163.449C164.418 206.924 164.82 208.165 164.035 208.734L159.461 212.049C159.109 212.303 158.962 212.756 159.096 213.168L160.845 218.535C161.145 219.456 160.092 220.223 159.307 219.654L154.722 216.332C154.372 216.078 153.899 216.078 153.548 216.332L148.963 219.654C148.179 220.223 147.125 219.456 147.425 218.535L149.174 213.168C149.308 212.756 149.161 212.303 148.81 212.049L144.235 208.734C143.45 208.165 143.852 206.924 144.822 206.924H150.483C150.915 206.924 151.299 206.646 151.433 206.234L153.184 200.86Z" fill="#E5E5E5"/>
<defs>
<radialGradient id="paint0_radial_167_571" cx="0" cy="0" r="1" gradientUnits="userSpaceOnUse" gradientTransform="translate(70.25 21.927) scale(62.1406 60.585)">
<stop stop-color="#423325" stop-opacity="0.98"/>
<stop offset="1" stop-color="#1C0A00"/>
</radialGradient>
</defs>
</svg>
