<svg width="167" height="223" viewBox="0 0 167 223" fill="none" xmlns="http://www.w3.org/2000/svg">
<path d="M72.0816 114.577H68.1616V116.901H71.9696V118.749H68.1616V122.529H66.2296V112.729H72.0816V114.577ZM74.3013 114.689C74.0027 114.689 73.7413 114.582 73.5173 114.367C73.3027 114.143 73.1953 113.882 73.1953 113.583C73.1953 113.285 73.3027 113.023 73.5173 112.799C73.7413 112.575 74.0027 112.463 74.3013 112.463C74.6093 112.463 74.8707 112.575 75.0853 112.799C75.3093 113.023 75.4213 113.285 75.4213 113.583C75.4213 113.882 75.3093 114.143 75.0853 114.367C74.8707 114.582 74.6093 114.689 74.3013 114.689ZM73.4053 122.529V115.529H75.2113V122.529H73.4053ZM82.2263 115.529H83.9903V122.193C83.9903 123.276 83.631 124.102 82.9123 124.671C82.203 125.241 81.3443 125.525 80.3363 125.525C79.5803 125.525 78.913 125.381 78.3343 125.091C77.765 124.802 77.3263 124.377 77.0183 123.817L78.5583 122.935C78.913 123.589 79.5243 123.915 80.3923 123.915C80.9617 123.915 81.4097 123.766 81.7363 123.467C82.063 123.169 82.2263 122.744 82.2263 122.193V121.437C81.6943 122.147 80.9477 122.501 79.9863 122.501C78.997 122.501 78.1663 122.156 77.4943 121.465C76.8317 120.765 76.5003 119.916 76.5003 118.917C76.5003 117.928 76.8363 117.083 77.5083 116.383C78.1803 115.683 79.0063 115.333 79.9863 115.333C80.9477 115.333 81.6943 115.688 82.2263 116.397V115.529ZM78.8523 120.303C79.2257 120.658 79.697 120.835 80.2663 120.835C80.8357 120.835 81.3023 120.658 81.6663 120.303C82.0397 119.939 82.2263 119.477 82.2263 118.917C82.2263 118.367 82.0397 117.914 81.6663 117.559C81.3023 117.195 80.8357 117.013 80.2663 117.013C79.697 117.013 79.2257 117.195 78.8523 117.559C78.4883 117.914 78.3063 118.367 78.3063 118.917C78.3063 119.477 78.4883 119.939 78.8523 120.303ZM93.37 115.333C94.1727 115.333 94.812 115.595 95.288 116.117C95.7733 116.64 96.016 117.34 96.016 118.217V122.529H94.21V118.343C94.21 117.923 94.1073 117.597 93.902 117.363C93.6967 117.13 93.4073 117.013 93.034 117.013C92.6233 117.013 92.3013 117.149 92.068 117.419C91.844 117.69 91.732 118.082 91.732 118.595V122.529H89.926V118.343C89.926 117.923 89.8233 117.597 89.618 117.363C89.4127 117.13 89.1233 117.013 88.75 117.013C88.3487 117.013 88.0267 117.149 87.784 117.419C87.5507 117.69 87.434 118.082 87.434 118.595V122.529H85.628V115.529H87.434V116.271C87.854 115.646 88.5027 115.333 89.38 115.333C90.2387 115.333 90.8733 115.669 91.284 116.341C91.7507 115.669 92.446 115.333 93.37 115.333ZM102.87 115.529H104.676V122.529H102.87V121.703C102.329 122.385 101.568 122.725 100.588 122.725C99.6545 122.725 98.8519 122.371 98.1799 121.661C97.5172 120.943 97.1859 120.065 97.1859 119.029C97.1859 117.993 97.5172 117.121 98.1799 116.411C98.8519 115.693 99.6545 115.333 100.588 115.333C101.568 115.333 102.329 115.674 102.87 116.355V115.529ZM99.5379 120.457C99.9019 120.821 100.364 121.003 100.924 121.003C101.484 121.003 101.946 120.821 102.31 120.457C102.683 120.084 102.87 119.608 102.87 119.029C102.87 118.451 102.683 117.979 102.31 117.615C101.946 117.242 101.484 117.055 100.924 117.055C100.364 117.055 99.9019 117.242 99.5379 117.615C99.1739 117.979 98.9919 118.451 98.9919 119.029C98.9919 119.608 99.1739 120.084 99.5379 120.457Z" fill="#828282"/>
<g clip-path="url(#clip0_167_595)">
<path d="M71.3433 88.2109C79.3818 88.2109 85.9019 81.6451 85.9019 73.5503V58.8896H71.3433C63.3048 58.8896 56.7847 65.4554 56.7847 73.5503C56.7847 81.6451 63.3048 88.2109 71.3433 88.2109Z" fill="#0ACF83"/>
<path d="M56.7847 44.2104C56.7847 36.1156 63.3048 29.5498 71.3433 29.5498H85.9019V58.889H71.3433C63.3048 58.871 56.7847 52.3052 56.7847 44.2104Z" fill="#A259FF"/>
<path d="M56.7847 14.8715C56.7847 6.77673 63.3048 0.210938 71.3433 0.210938H85.9019V29.5501H71.3433C63.3048 29.5501 56.7847 22.9664 56.7847 14.8715Z" fill="#F24E1E"/>
<path d="M85.9199 0.210938H100.479C108.517 0.210938 115.037 6.77673 115.037 14.8715C115.037 22.9664 108.517 29.5322 100.479 29.5322H85.9199V0.210938V0.210938Z" fill="#FF7262"/>
<path d="M115.037 44.2104C115.037 52.3052 108.517 58.871 100.478 58.871C92.4398 58.871 85.9197 52.3052 85.9197 44.2104C85.9197 36.1156 92.4398 29.5498 100.478 29.5498C108.517 29.5498 115.037 36.1156 115.037 44.2104Z" fill="#1ABCFE"/>
</g>
<path d="M12.2171 199.86C12.517 198.939 13.8189 198.939 14.1187 199.86L15.8698 205.234C16.0039 205.646 16.3877 205.924 16.8206 205.924H22.4814C23.4508 205.924 23.8531 207.165 23.0681 207.734L18.4932 211.049C18.1418 211.303 17.9947 211.756 18.1291 212.168L19.8777 217.535C20.1777 218.456 19.1244 219.223 18.3402 218.654L13.7546 215.332C13.4046 215.078 12.9312 215.078 12.5812 215.332L7.99566 218.654C7.2114 219.223 6.15811 218.456 6.45813 217.535L8.2067 212.168C8.34116 211.756 8.19408 211.303 7.84262 211.049L3.26775 207.734C2.48274 207.165 2.88507 205.924 3.85446 205.924H9.51522C9.94815 205.924 10.3319 205.646 10.466 205.234L12.2171 199.86Z" fill="#070707"/>
<path d="M47.314 199.86C47.6139 198.939 48.9158 198.939 49.2157 199.86L50.9667 205.234C51.1009 205.646 51.4846 205.924 51.9175 205.924H57.5783C58.5477 205.924 58.95 207.165 58.165 207.734L53.5901 211.049C53.2387 211.303 53.0916 211.756 53.2261 212.168L54.9746 217.535C55.2747 218.456 54.2214 219.223 53.4371 218.654L48.8516 215.332C48.5015 215.078 48.0282 215.078 47.6781 215.332L43.0926 218.654C42.3083 219.223 41.255 218.456 41.5551 217.535L43.3036 212.168C43.4381 211.756 43.291 211.303 42.9395 211.049L38.3647 207.734C37.5797 207.165 37.982 205.924 38.9514 205.924H44.6121C45.0451 205.924 45.4288 205.646 45.5629 205.234L47.314 199.86Z" fill="#070707"/>
<path d="M82.4112 199.86C82.7111 198.939 84.013 198.939 84.3128 199.86L86.0639 205.234C86.198 205.646 86.5818 205.924 87.0147 205.924H92.6755C93.6449 205.924 94.0472 207.165 93.2622 207.734L88.6873 211.049C88.3359 211.303 88.1888 211.756 88.3232 212.168L90.0718 217.535C90.3718 218.456 89.3185 219.223 88.5343 218.654L83.9487 215.332C83.5987 215.078 83.1253 215.078 82.7753 215.332L78.1897 218.654C77.4055 219.223 76.3522 218.456 76.6522 217.535L78.4008 212.168C78.5352 211.756 78.3882 211.303 78.0367 211.049L73.4618 207.734C72.6768 207.165 73.0792 205.924 74.0486 205.924H79.7093C80.1422 205.924 80.526 205.646 80.6601 205.234L82.4112 199.86Z" fill="#070707"/>
<path d="M117.508 199.86C117.808 198.939 119.11 198.939 119.41 199.86L121.161 205.234C121.295 205.646 121.679 205.924 122.112 205.924H127.773C128.742 205.924 129.144 207.165 128.359 207.734L123.784 211.049C123.433 211.303 123.286 211.756 123.42 212.168L125.169 217.535C125.469 218.456 124.416 219.223 123.631 218.654L119.046 215.332C118.696 215.078 118.222 215.078 117.872 215.332L113.287 218.654C112.503 219.223 111.449 218.456 111.749 217.535L113.498 212.168C113.632 211.756 113.485 211.303 113.134 211.049L108.559 207.734C107.774 207.165 108.176 205.924 109.146 205.924H114.806C115.239 205.924 115.623 205.646 115.757 205.234L117.508 199.86Z" fill="#070707"/>
<path d="M152.606 199.86C152.905 198.939 154.207 198.939 154.507 199.86L156.258 205.234C156.392 205.646 156.776 205.924 157.209 205.924H162.87C163.839 205.924 164.242 207.165 163.457 207.734L158.882 211.049C158.53 211.303 158.383 211.756 158.518 212.168L160.266 217.535C160.566 218.456 159.513 219.223 158.729 218.654L154.143 215.332C153.793 215.078 153.32 215.078 152.97 215.332L148.384 218.654C147.6 219.223 146.547 218.456 146.847 217.535L148.595 212.168C148.73 211.756 148.583 211.303 148.231 211.049L143.656 207.734C142.871 207.165 143.273 205.924 144.243 205.924H149.904C150.337 205.924 150.72 205.646 150.854 205.234L152.606 199.86Z" fill="#E5E5E5"/>
<defs>
<clipPath id="clip0_167_595">
<rect width="58.2523" height="87.9996" fill="white" transform="translate(56.7847 0.210938)"/>
</clipPath>
</defs>
</svg>
