<svg width="167" height="224" viewBox="0 0 167 224" fill="none" xmlns="http://www.w3.org/2000/svg">
<path d="M68.2247 121.565L67.6367 119.801H63.7307L63.1427 121.565H61.0567L64.4867 111.765H66.8807L70.3247 121.565H68.2247ZM64.3467 117.995H67.0347L65.6907 113.991L64.3467 117.995ZM76.3069 111.765H78.1129V121.565H76.3069V120.739C75.7749 121.421 75.0189 121.761 74.0389 121.761C73.0962 121.761 72.2889 121.407 71.6169 120.697C70.9542 119.979 70.6229 119.101 70.6229 118.065C70.6229 117.029 70.9542 116.157 71.6169 115.447C72.2889 114.729 73.0962 114.369 74.0389 114.369C75.0189 114.369 75.7749 114.71 76.3069 115.391V111.765ZM72.9749 119.493C73.3482 119.857 73.8149 120.039 74.3749 120.039C74.9349 120.039 75.3969 119.857 75.7609 119.493C76.1249 119.12 76.3069 118.644 76.3069 118.065C76.3069 117.487 76.1249 117.015 75.7609 116.651C75.3969 116.278 74.9349 116.091 74.3749 116.091C73.8149 116.091 73.3482 116.278 72.9749 116.651C72.6109 117.015 72.4289 117.487 72.4289 118.065C72.4289 118.644 72.6109 119.12 72.9749 119.493ZM85.7285 120.697C85.0099 121.407 84.1325 121.761 83.0965 121.761C82.0605 121.761 81.1832 121.407 80.4645 120.697C79.7552 119.979 79.4005 119.101 79.4005 118.065C79.4005 117.029 79.7552 116.157 80.4645 115.447C81.1832 114.729 82.0605 114.369 83.0965 114.369C84.1325 114.369 85.0099 114.729 85.7285 115.447C86.4472 116.157 86.8065 117.029 86.8065 118.065C86.8065 119.101 86.4472 119.979 85.7285 120.697ZM81.7385 119.451C82.1025 119.815 82.5552 119.997 83.0965 119.997C83.6379 119.997 84.0905 119.815 84.4545 119.451C84.8185 119.087 85.0005 118.625 85.0005 118.065C85.0005 117.505 84.8185 117.043 84.4545 116.679C84.0905 116.315 83.6379 116.133 83.0965 116.133C82.5552 116.133 82.1025 116.315 81.7385 116.679C81.3839 117.043 81.2065 117.505 81.2065 118.065C81.2065 118.625 81.3839 119.087 81.7385 119.451ZM92.151 114.369C93.0937 114.369 93.8964 114.729 94.559 115.447C95.231 116.157 95.567 117.029 95.567 118.065C95.567 119.101 95.231 119.979 94.559 120.697C93.8964 121.407 93.0937 121.761 92.151 121.761C91.171 121.761 90.415 121.421 89.883 120.739V121.565H88.077V111.765H89.883V115.391C90.415 114.71 91.171 114.369 92.151 114.369ZM90.429 119.493C90.793 119.857 91.255 120.039 91.815 120.039C92.375 120.039 92.837 119.857 93.201 119.493C93.5744 119.12 93.761 118.644 93.761 118.065C93.761 117.487 93.5744 117.015 93.201 116.651C92.837 116.278 92.375 116.091 91.815 116.091C91.255 116.091 90.793 116.278 90.429 116.651C90.065 117.015 89.883 117.487 89.883 118.065C89.883 118.644 90.065 119.12 90.429 119.493ZM98.3667 118.807C98.6094 119.685 99.2674 120.123 100.341 120.123C101.031 120.123 101.554 119.89 101.909 119.423L103.365 120.263C102.674 121.262 101.657 121.761 100.313 121.761C99.1554 121.761 98.2267 121.411 97.5267 120.711C96.8267 120.011 96.4767 119.129 96.4767 118.065C96.4767 117.011 96.822 116.133 97.5127 115.433C98.2034 114.724 99.09 114.369 100.173 114.369C101.199 114.369 102.044 114.724 102.707 115.433C103.379 116.143 103.715 117.02 103.715 118.065C103.715 118.299 103.691 118.546 103.645 118.807H98.3667ZM98.3387 117.407H101.909C101.806 116.931 101.591 116.577 101.265 116.343C100.947 116.11 100.583 115.993 100.173 115.993C99.6874 115.993 99.286 116.119 98.9687 116.371C98.6514 116.614 98.4414 116.959 98.3387 117.407ZM52.3175 138.565L51.7295 136.801H47.8235L47.2355 138.565H45.1495L48.5795 128.765H50.9735L54.4175 138.565H52.3175ZM48.4395 134.995H51.1275L49.7835 130.991L48.4395 134.995ZM58.846 130.305C57.8566 130.231 57.362 130.627 57.362 131.495V131.565H58.846V133.301H57.362V138.565H55.556V133.301H54.548V131.565H55.556V131.495C55.556 130.506 55.8313 129.755 56.382 129.241C56.9326 128.728 57.754 128.504 58.846 128.569V130.305ZM63.8965 133.301H62.3145V136.213C62.3145 136.456 62.3751 136.633 62.4965 136.745C62.6178 136.857 62.7951 136.923 63.0285 136.941C63.2618 136.951 63.5511 136.946 63.8965 136.927V138.565C62.6551 138.705 61.7778 138.589 61.2645 138.215C60.7605 137.842 60.5085 137.175 60.5085 136.213V133.301H59.2905V131.565H60.5085V130.151L62.3145 129.605V131.565H63.8965V133.301ZM66.4771 135.807C66.7197 136.685 67.3777 137.123 68.4511 137.123C69.1417 137.123 69.6644 136.89 70.0191 136.423L71.4751 137.263C70.7844 138.262 69.7671 138.761 68.4231 138.761C67.2657 138.761 66.3371 138.411 65.6371 137.711C64.9371 137.011 64.5871 136.129 64.5871 135.065C64.5871 134.011 64.9324 133.133 65.6231 132.433C66.3137 131.724 67.2004 131.369 68.2831 131.369C69.3097 131.369 70.1544 131.724 70.8171 132.433C71.4891 133.143 71.8251 134.02 71.8251 135.065C71.8251 135.299 71.8017 135.546 71.7551 135.807H66.4771ZM66.4491 134.407H70.0191C69.9164 133.931 69.7017 133.577 69.3751 133.343C69.0577 133.11 68.6937 132.993 68.2831 132.993C67.7977 132.993 67.3964 133.119 67.0791 133.371C66.7617 133.614 66.5517 133.959 66.4491 134.407ZM74.8918 132.769C75.0598 132.321 75.3352 131.985 75.7178 131.761C76.1098 131.537 76.5438 131.425 77.0198 131.425V133.441C76.4692 133.376 75.9745 133.488 75.5358 133.777C75.1065 134.067 74.8918 134.547 74.8918 135.219V138.565H73.0858V131.565H74.8918V132.769ZM83.5921 136.717H87.7221V138.565H81.6601V128.765H87.6521V130.613H83.5921V132.699H87.3021V134.519H83.5921V136.717ZM96.6439 130.165C95.6546 130.091 95.1599 130.487 95.1599 131.355V131.565H96.6439V133.301H95.1599V138.565H93.3539V133.301H91.2819V138.565H89.4759V133.301H88.4679V131.565H89.4759V131.495C89.4759 130.506 89.7512 129.755 90.3019 129.241C90.8526 128.728 91.6739 128.504 92.7659 128.569V130.305C91.7766 130.231 91.2819 130.627 91.2819 131.495V131.565H93.3539V131.355C93.3539 130.366 93.6292 129.615 94.1799 129.101C94.7399 128.588 95.5612 128.364 96.6439 128.429V130.165ZM98.7427 135.807C98.9854 136.685 99.6434 137.123 100.717 137.123C101.407 137.123 101.93 136.89 102.285 136.423L103.741 137.263C103.05 138.262 102.033 138.761 100.689 138.761C99.5314 138.761 98.6027 138.411 97.9027 137.711C97.2027 137.011 96.8527 136.129 96.8527 135.065C96.8527 134.011 97.198 133.133 97.8887 132.433C98.5794 131.724 99.466 131.369 100.549 131.369C101.575 131.369 102.42 131.724 103.083 132.433C103.755 133.143 104.091 134.02 104.091 135.065C104.091 135.299 104.067 135.546 104.021 135.807H98.7427ZM98.7147 134.407H102.285C102.182 133.931 101.967 133.577 101.641 133.343C101.323 133.11 100.959 132.993 100.549 132.993C100.063 132.993 99.662 133.119 99.3447 133.371C99.0274 133.614 98.8174 133.959 98.7147 134.407ZM108.629 138.761C107.574 138.761 106.692 138.407 105.983 137.697C105.283 136.988 104.933 136.111 104.933 135.065C104.933 134.02 105.283 133.143 105.983 132.433C106.692 131.724 107.574 131.369 108.629 131.369C109.31 131.369 109.931 131.533 110.491 131.859C111.051 132.186 111.475 132.625 111.765 133.175L110.211 134.085C110.071 133.796 109.856 133.567 109.567 133.399C109.287 133.231 108.969 133.147 108.615 133.147C108.073 133.147 107.625 133.329 107.271 133.693C106.916 134.048 106.739 134.505 106.739 135.065C106.739 135.616 106.916 136.073 107.271 136.437C107.625 136.792 108.073 136.969 108.615 136.969C108.979 136.969 109.301 136.89 109.581 136.731C109.87 136.563 110.085 136.335 110.225 136.045L111.793 136.941C111.485 137.492 111.051 137.935 110.491 138.271C109.931 138.598 109.31 138.761 108.629 138.761ZM116.752 133.301H115.17V136.213C115.17 136.456 115.231 136.633 115.352 136.745C115.473 136.857 115.651 136.923 115.884 136.941C116.117 136.951 116.407 136.946 116.752 136.927V138.565C115.511 138.705 114.633 138.589 114.12 138.215C113.616 137.842 113.364 137.175 113.364 136.213V133.301H112.146V131.565H113.364V130.151L115.17 129.605V131.565H116.752V133.301ZM119.541 133.553C119.541 133.74 119.662 133.894 119.905 134.015C120.157 134.127 120.46 134.23 120.815 134.323C121.17 134.407 121.524 134.519 121.879 134.659C122.234 134.79 122.532 135.014 122.775 135.331C123.027 135.649 123.153 136.045 123.153 136.521C123.153 137.24 122.882 137.795 122.341 138.187C121.809 138.57 121.142 138.761 120.339 138.761C118.902 138.761 117.922 138.206 117.399 137.095L118.967 136.213C119.172 136.82 119.63 137.123 120.339 137.123C120.983 137.123 121.305 136.923 121.305 136.521C121.305 136.335 121.179 136.185 120.927 136.073C120.684 135.952 120.386 135.845 120.031 135.751C119.676 135.658 119.322 135.541 118.967 135.401C118.612 135.261 118.309 135.042 118.057 134.743C117.814 134.435 117.693 134.053 117.693 133.595C117.693 132.905 117.945 132.363 118.449 131.971C118.962 131.57 119.597 131.369 120.353 131.369C120.922 131.369 121.44 131.5 121.907 131.761C122.374 132.013 122.742 132.377 123.013 132.853L121.473 133.693C121.249 133.217 120.876 132.979 120.353 132.979C120.12 132.979 119.924 133.031 119.765 133.133C119.616 133.236 119.541 133.376 119.541 133.553Z" fill="#828282"/>
<path d="M43.3625 3.95215H125.123V84.055H43.3625V3.95215Z" fill="url(#paint0_radial_167_584)"/>
<path d="M43.3625 3.95255H125.123V84.0554H43.3625V3.95255ZM39.647 87.797H128.857V0.210938H39.647V87.797ZM102.758 42.43C104.652 42.43 105.33 42.43 105.509 42.358C105.509 42.0882 105.581 41.9083 105.581 41.7284C105.581 39.7137 104.616 35.9721 100.757 35.9721C97.1848 35.9721 95.6664 39.1201 95.2913 42.448H102.758V42.43ZM95.2198 47.5567C95.2913 52.6115 97.6671 56.0113 103.33 56.0113C105.527 56.0113 107.42 55.7055 109.385 54.86C109.653 54.7521 109.832 54.7881 109.832 55.1299V59.8069C109.832 60.1846 109.725 60.3645 109.457 60.5624C107.492 61.5338 105.027 61.9835 101.99 61.9835C92.1831 61.9835 88.5032 54.6801 88.5032 46.5673C88.5032 37.735 93.0405 30.5036 101.025 30.5036C109.135 30.5036 111.958 37.3572 111.958 42.9336C111.958 44.7325 111.851 46.1896 111.654 46.9091C111.583 47.2149 111.475 47.3228 111.172 47.3948C110.422 47.5027 108.242 47.6646 104.973 47.6646H95.2377V47.5567H95.2198ZM75.2843 43.7431C74.2483 39.5878 71.7117 30.5396 70.7828 26.1504H70.7113C69.9253 30.5216 67.8889 37.9328 66.3705 43.7431H75.2843ZM64.8522 49.8053L61.9226 60.9941C61.8511 61.2999 61.7439 61.4079 61.3688 61.4079H55.8848C55.5096 61.4079 55.4382 61.2999 55.5096 60.8502L66.0669 23.6859C66.2455 23.0204 66.3705 22.4807 66.442 20.6099C66.442 20.3401 66.5492 20.2322 66.7457 20.2322H74.5519C74.8199 20.2322 74.9271 20.3041 74.9985 20.6099L86.8062 60.9222C86.8777 61.228 86.8062 61.4079 86.5025 61.4079H80.3754C80.0717 61.4079 79.8931 61.2999 79.8216 61.0301L76.767 49.8053H64.8522Z" fill="#D8A1FF"/>
<path d="M12.5062 200.86C12.806 199.939 14.1079 199.939 14.4078 200.86L16.1589 206.234C16.293 206.646 16.6768 206.924 17.1097 206.924H22.7704C23.7398 206.924 24.1422 208.165 23.3572 208.734L18.7823 212.049C18.4308 212.303 18.2837 212.756 18.4182 213.168L20.1668 218.535C20.4668 219.456 19.4135 220.223 18.6293 219.654L14.0437 216.332C13.6937 216.078 13.2203 216.078 12.8703 216.332L8.28472 219.654C7.50046 220.223 6.44717 219.456 6.74719 218.535L8.49577 213.168C8.63022 212.756 8.48314 212.303 8.13168 212.049L3.55681 208.734C2.7718 208.165 3.17413 206.924 4.14353 206.924H9.80428C10.2372 206.924 10.621 206.646 10.7551 206.234L12.5062 200.86Z" fill="#070707"/>
<path d="M47.6036 200.86C47.9034 199.939 49.2054 199.939 49.5052 200.86L51.2563 206.234C51.3904 206.646 51.7742 206.924 52.2071 206.924H57.8679C58.8373 206.924 59.2396 208.165 58.4546 208.734L53.8797 212.049C53.5282 212.303 53.3812 212.756 53.5156 213.168L55.2642 218.535C55.5642 219.456 54.5109 220.223 53.7267 219.654L49.1411 216.332C48.7911 216.078 48.3177 216.078 47.9677 216.332L43.3821 219.654C42.5979 220.223 41.5446 219.456 41.8446 218.535L43.5932 213.168C43.7276 212.756 43.5806 212.303 43.2291 212.049L38.6542 208.734C37.8692 208.165 38.2715 206.924 39.2409 206.924H44.9017C45.3346 206.924 45.7184 206.646 45.8525 206.234L47.6036 200.86Z" fill="#070707"/>
<path d="M82.7008 200.86C83.0006 199.939 84.3025 199.939 84.6024 200.86L86.3535 206.234C86.4876 206.646 86.8713 206.924 87.3043 206.924H92.965C93.9344 206.924 94.3367 208.165 93.5517 208.734L88.9769 212.049C88.6254 212.303 88.4783 212.756 88.6128 213.168L90.3614 218.535C90.6614 219.456 89.6081 220.223 88.8238 219.654L84.2383 216.332C83.8882 216.078 83.4149 216.078 83.0648 216.332L78.4793 219.654C77.695 220.223 76.6418 219.456 76.9418 218.535L78.6903 213.168C78.8248 212.756 78.6777 212.303 78.3263 212.049L73.7514 208.734C72.9664 208.165 73.3687 206.924 74.3381 206.924H79.9989C80.4318 206.924 80.8155 206.646 80.9497 206.234L82.7008 200.86Z" fill="#070707"/>
<path d="M117.798 200.86C118.098 199.939 119.4 199.939 119.7 200.86L121.451 206.234C121.585 206.646 121.969 206.924 122.401 206.924H128.062C129.032 206.924 129.434 208.165 128.649 208.734L124.074 212.049C123.723 212.303 123.575 212.756 123.71 213.168L125.459 218.535C125.759 219.456 124.705 220.223 123.921 219.654L119.335 216.332C118.985 216.078 118.512 216.078 118.162 216.332L113.576 219.654C112.792 220.223 111.739 219.456 112.039 218.535L113.788 213.168C113.922 212.756 113.775 212.303 113.423 212.049L108.849 208.734C108.064 208.165 108.466 206.924 109.435 206.924H115.096C115.529 206.924 115.913 206.646 116.047 206.234L117.798 200.86Z" fill="#070707"/>
<path d="M152.895 200.86C153.195 199.939 154.497 199.939 154.796 200.86L156.548 206.234C156.682 206.646 157.065 206.924 157.498 206.924H163.159C164.129 206.924 164.531 208.165 163.746 208.734L159.171 212.049C158.819 212.303 158.672 212.756 158.807 213.168L160.555 218.535C160.855 219.456 159.802 220.223 159.018 219.654L154.432 216.332C154.082 216.078 153.609 216.078 153.259 216.332L148.673 219.654C147.889 220.223 146.836 219.456 147.136 218.535L148.884 213.168C149.019 212.756 148.872 212.303 148.52 212.049L143.945 208.734C143.16 208.165 143.563 206.924 144.532 206.924H150.193C150.626 206.924 151.01 206.646 151.144 206.234L152.895 200.86Z" fill="#E5E5E5"/>
<defs>
<radialGradient id="paint0_radial_167_584" cx="0" cy="0" r="1" gradientUnits="userSpaceOnUse" gradientTransform="translate(70.315 21.9111) scale(62.1407 60.585)">
<stop stop-color="#442F55" stop-opacity="0.98"/>
<stop offset="1" stop-color="#12002C"/>
</radialGradient>
</defs>
</svg>
