<svg width="22" height="20" viewBox="0 0 22 20" fill="none" xmlns="http://www.w3.org/2000/svg">
<path d="M10.2794 0.85958C10.5792 -0.0606967 11.8811 -0.0606959 12.181 0.859581L13.9321 6.23398C14.0662 6.64561 14.45 6.92418 14.8829 6.92418H20.5436C21.513 6.92418 21.9154 8.16521 21.1304 8.73398L16.5555 12.0486C16.204 12.3033 16.0569 12.7555 16.1914 13.1682L17.94 18.5349C18.24 19.4557 17.1867 20.2227 16.4024 19.6544L11.8169 16.3321C11.4669 16.0784 10.9935 16.0784 10.6435 16.3321L6.05791 19.6544C5.27365 20.2227 4.22036 19.4557 4.52039 18.5348L6.26896 13.1682C6.40341 12.7555 6.25633 12.3033 5.90487 12.0486L1.33 8.73398C0.544994 8.16521 0.947325 6.92418 1.91672 6.92418H7.57748C8.0104 6.92418 8.39416 6.6456 8.52828 6.23398L10.2794 0.85958Z" fill="#070707"/>
</svg>
